<svg t="1627298179955" class="icon" viewBox="0 0 1024 1024" version="1.1" xmlns="http://www.w3.org/2000/svg" p-id="9374" width="16" height="16"><path d="M114.11 935.88h-0.58a26.25 26.25 0 0 1-26.18-26.26V643.94a26.3 26.3 0 0 1 26.26-26.18h0.58A26.37 26.37 0 0 1 140.45 644v265.7a26.38 26.38 0 0 1-26.35 26.18z m0 0" p-id="9375" fill="#ffffff"></path><path d="M405.47 909.12v0.58a26.38 26.38 0 0 1-26.26 26.3h-265.6a26.39 26.39 0 0 1-26.26-26.34V909a26.3 26.3 0 0 1 26.26-26.18h265.68a26.3 26.3 0 0 1 26.18 26.26z m0 0" p-id="9376" fill="#ffffff"></path><path d="M95.39 928.26l-0.41-0.42a26.35 26.35 0 0 1 0-37.11L339 646.67a26.35 26.35 0 0 1 37.11 0l0.41 0.41a26.35 26.35 0 0 1 0 37.11L132.5 928.26a26.35 26.35 0 0 1-37.11 0z m0 0M114.11 87.56h-0.58a26.25 26.25 0 0 0-26.18 26.26V379.5a26.25 26.25 0 0 0 26.26 26.18h0.58a26.38 26.38 0 0 0 26.26-26.26v-265.6a26.39 26.39 0 0 0-26.35-26.26z m0 0" p-id="9377" fill="#ffffff"></path><path d="M405.47 114.32v-0.58a26.25 26.25 0 0 0-26.26-26.18h-265.6a26.27 26.27 0 0 0-26.26 26.26v0.58a26.25 26.25 0 0 0 26.26 26.18h265.68a26.25 26.25 0 0 0 26.18-26.26z m0 0" p-id="9378" fill="#ffffff"></path><path d="M95.39 95.18l-0.41 0.41a26.35 26.35 0 0 0 0 37.11L339 376.77a26.35 26.35 0 0 0 37.11 0l0.41-0.41a26.35 26.35 0 0 0 0-37.11L132.5 95.18a26.35 26.35 0 0 0-37.11 0z m0 0" p-id="9379" fill="#ffffff"></path><path d="M908.91 935.88h0.58a26.38 26.38 0 0 0 26.26-26.26V644a26.37 26.37 0 0 0-26.26-26.26h-0.58A26.37 26.37 0 0 0 882.65 644v265.7a26.3 26.3 0 0 0 26.26 26.18z m0 0" p-id="9380" fill="#ffffff"></path><path d="M617.55 909.12v0.58a26.37 26.37 0 0 0 26.26 26.3H909.5a26.37 26.37 0 0 0 26.26-26.26v-0.58a26.37 26.37 0 0 0-26.26-26.26H643.81a26.37 26.37 0 0 0-26.26 26.26z m0 0" p-id="9381" fill="#ffffff"></path><path d="M927.64 928.26l0.42-0.42a26.35 26.35 0 0 0 0-37.11L683.91 646.67a26.35 26.35 0 0 0-37.11 0l-0.42 0.41a26.36 26.36 0 0 0 0 37.11l244.06 244.07a26.45 26.45 0 0 0 37.2 0z m0 0" p-id="9382" fill="#ffffff"></path><path d="M908.91 87.56h0.58a26.32 26.32 0 0 1 26.26 26.26V379.5a26.37 26.37 0 0 1-26.26 26.26h-0.58a26.37 26.37 0 0 1-26.26-26.26V113.82a26.32 26.32 0 0 1 26.26-26.26z m0 0" p-id="9383" fill="#ffffff"></path><path d="M617.55 114.32v-0.58a26.3 26.3 0 0 1 26.26-26.18H909.5a26.32 26.32 0 0 1 26.26 26.26v0.58a26.37 26.37 0 0 1-26.26 26.26H643.81a26.45 26.45 0 0 1-26.26-26.35z m0 0" p-id="9384" fill="#ffffff"></path><path d="M927.64 95.18l0.42 0.41a26.35 26.35 0 0 1 0 37.11L683.91 376.77a26.35 26.35 0 0 1-37.11 0l-0.42-0.41a26.36 26.36 0 0 1 0-37.11L890.52 95.18a26.35 26.35 0 0 1 37.11 0z m0 0" p-id="9385" fill="#ffffff"></path></svg>