<svg t="1627297098223" class="icon" viewBox="0 0 1024 1024" version="1.1" xmlns="http://www.w3.org/2000/svg" p-id="2600" width="16" height="16"><path d="M866.9 418.6c0-16.6-13.4-30-30-30h-166c-16.6 0-30-13.4-30-30V191.9c0-16.6-13.4-30-30-30h-3c-16.6 0-30 13.4-30 30v226.7c0 16.6 13.4 30 30 30h229c16.6 0 30-13.4 30-30zM240.3 158h242.3c16.6 0 30-13.4 30-30s-13.4-30-30-30H194.3c-52.9 0-95.7 42.9-95.7 95.7v288.8c0 16.6 13.4 30 30 30s30-13.4 30-30V239.7c-0.1-45.1 36.5-81.7 81.7-81.7zM778.8 865H540.6c-16.6 0-30 13.4-30 30v3c0 16.6 13.4 30 30 30h291.2c52.9 0 95.7-42.9 95.7-95.7V541.7c0-16.6-13.4-30-30-30h-3c-16.6 0-30 13.4-30 30v237.5c0 47.4-38.4 85.8-85.7 85.8zM417.5 864.1c16.6 0 30-13.4 30-30V605.6c0-16.6-13.4-30-30-30h-226c-16.6 0-30 13.4-30 30v3c0 16.6 13.4 30 30 30h166c16.6 0 30 13.4 30 30v165.5c0 16.5 13.5 30 30 30z" p-id="2601" fill="#ffffff"></path><path d="M872 108.4L637 343.9c-12.7 12.7-12.7 33.3 0 46 12.7 12.7 33.3 12.7 46 0l235-235.6c12.7-12.7 12.7-33.3 0-46-12.7-12.6-33.3-12.6-46 0.1zM107.9 918.5c12.7 12.7 33.3 12.7 46 0l246-246c12.7-12.7 12.7-33.3 0-46-12.7-12.7-33.3-12.7-46 0l-246 246c-12.7 12.7-12.7 33.3 0 46z" p-id="2602" fill="#ffffff"></path></svg>