<svg xmlns="http://www.w3.org/2000/svg" version="1.1" xmlns:xlink="http://www.w3.org/1999/xlink" xmlns:svgjs="http://svgjs.dev/svgjs" width="128" height="128" viewBox="0 0 128 128"><g transform="matrix(0.8046875,0,0,0.8046875,12.229333749954264,12.760752631578946)"><svg viewBox="0 0 95 95" data-background-color="#ffffff" preserveAspectRatio="xMidYMid meet" height="128" width="128" xmlns="http://www.w3.org/2000/svg" xmlns:xlink="http://www.w3.org/1999/xlink"><defs></defs><g id="tight-bounds" transform="matrix(1,0,0,1,0.24964362868296064,-0.24049999999999727)"><svg viewBox="0 0 94.50071274263408 95.481" height="95.481" width="94.50071274263408"><g><svg viewBox="0 0 94.50071274263408 95.481" height="95.481" width="94.50071274263408"><g><svg viewBox="0 0 94.50071274263408 95.481" height="95.481" width="94.50071274263408"><g><svg viewBox="0 0 94.50071274263408 95.481" height="95.481" width="94.50071274263408"><g><svg viewBox="0 0 94.50071274263408 95.481" height="95.481" width="94.50071274263408"><g><svg viewBox="0 0 94.50071274263408 95.481" height="95.481" width="94.50071274263408"><g><svg xmlns="http://www.w3.org/2000/svg" xmlns:xlink="http://www.w3.org/1999/xlink" xml:space="preserve" version="1.1" style="shape-rendering:geometricPrecision;text-rendering:geometricPrecision;image-rendering:optimizeQuality;" viewBox="2235 1946 55527 56103" x="0" y="0" fill-rule="evenodd" clip-rule="evenodd" height="95.481" width="94.50071274263408" class="icon-icon-0" data-fill-palette-color="accent" id="icon-0"><g fill="#010c80" data-fill-palette-color="accent"><path class="" d="M39110 25093c-36-73-70-148-103-223-244-566-382-1185-382-1849 0-675 133-1320 374-1908-577 230-1206 356-1864 356-567 0-1112-94-1620-266 22 47 43 94 64 142 264 612 410 1285 410 1993 0 678-134 1325-377 1915 604-256 1267-397 1964-397 535 0 1050 83 1534 238z m16189 8784l-566 566-566-566 566-566 566 566z m-12920 21559l-566-566-566 566 566 566 566-566z m-2263-2263l-566-566-566 566 566 566 566-566z m-2263-2263l-566-566-566 566 566 566 566-566z m8928 2032l-566-566-566 566 566 566 566-566z m-2263-2263l-566-566-566 566 566 566 566-566z m-2263-2263l-566-566-566 566 566 566 566-566z m9650 2754l-566 566-566-566 566-566 566 566z m-2263-2263l-566 566-566-566 566-566 566 566z m-2263-2263l-566 566-566-566 566-566 566 566z m-2263-2263l-566 566-566-566 566-566 566 566z m-7586 13102l-566 566-566-566 566-566 566 566z m-2263-2263l-566 566-566-566 566-566 566 566z m18408-9176l-566-566-566 566 566 566 566-566z m-2263-2263l-566-566-566 566 566 566 566-566z m-2263-2263l-566-566-566 566 566 566 566-566z m7019 123l-566-566-566 566 566 566 566-566z m-2263-2263l-566-566-566 566 566 566 566-566z m-2263-2263l-566-566-566 566 566 566 566-566z m5916-979l-566 566-566-566 566-566 566 566z m-31717-30866l566-566 566 566-566 566-566-566z m-21559 12920l566 566 566-566-566-566-566 566z m2263 2263l566 566 566-566-566-566-566 566z m2263 2263l566 566 566-566-566-566-566 566z m-2032-8928l566 566 566-566-566-566-566 566z m2263 2263l566 566 566-566-566-566-566 566z m2263 2263l566 566 566-566-566-566-566 566z m-2754-9650l566-566 566 566-566 566-566-566z m2263 2263l566-566 566 566-566 566-566-566z m2263 2263l566-566 566 566-566 566-566-566z m2263 2263l566-566 566 566-566 566-566-566z m-13102 7586l566-566 566 566-566 566-566-566z m2263 2263l566-566 566 566-566 566-566-566z m9176-18408l566 566 566-566-566-566-566 566z m2263 2263l566 566 566-566-566-566-566 566z m2263 2263l566 566 566-566-566-566-566 566z m-123-7019l566 566 566-566-566-566-566 566z m2263 2263l566 566 566-566-566-566-566 566z m2263 2263l566 566 566-566-566-566-566 566z m979-5916l566-566 566 566-566 566-566-566z m3198 52399l-566-566 566-566 566 566-566 566z m-21559-12920l566-566-566-566-566 566 566 566z m2263-2263c189-189 377-377 566-566l-566-566c-188 189-377 377-566 566l566 566z m2263-2263c188-189 377-377 566-566l-566-566c-189 189-377 377-566 566l566 566z m-2032 8928l566-566-566-566-566 566 566 566z m2263-2263l566-566-566-566-566 566 566 566z m2263-2263l566-566-566-566-566 566 566 566z m-2754 9650l-566-566 566-566 566 566-566 566z m2263-2263l-566-566 566-566 566 566-566 566z m2263-2263l-566-566 566-566 566 566-566 566z m2263-2263l-566-566 566-566 566 566-566 566z m-13102-7586l-566-566 566-566 566 566-566 566z m2263-2263l-566-566 566-566 566 566-566 566z m9176 18408l566-566-566-566-566 566 566 566z m2263-2263c189-189 377-377 566-566l-566-566c-188 189-377 377-566 566l566 566z m2263-2263l566-566-566-566-566 566 566 566z m-123 7019l566-566-566-566-566 566 566 566z m2263-2263c189-189 377-377 566-566l-566-566c-188 189-377 377-566 566l566 566z m2263-2263c188-189 377-377 566-566l-566-566c-189 189-377 377-566 566l566 566z m979 5916l-566-566 566-566 566 566-566 566z m30416-32117l566 566-566 566-566-566 566-566z m-12920-21559l-566 566 566 566 566-566-566-566z m-2263 2263c-189 189-377 377-566 566l566 566c189-188 377-377 566-566l-566-566z m-2263 2263l-566 566 566 566 566-566-566-566z m8928-2032l-566 566 566 566 566-566-566-566z m-2263 2263c-188 189-377 377-566 566l566 566c189-189 377-377 566-566l-566-566z m-2263 2263l-566 566 566 566 566-566-566-566z m9650-2754l566 566-566 566-566-566 566-566z m-2263 2263l566 566-566 566-566-566 566-566z m-2263 2263l566 566-566 566-566-566 566-566z m-2263 2263l566 566-566 566-566-566 566-566z m-7586-13102l566 566-566 566-566-566 566-566z m-2263 2263l566 566-566 566-566-566 566-566z m18408 9176l-566 566 566 566 566-566-566-566z m-2263 2263c-188 189-377 377-566 566l566 566c189-189 377-377 566-566l-566-566z m-2263 2263l-566 566 566 566 566-566-566-566z m7019-123l-566 566 566 566 566-566-566-566z m-2263 2263c-189 189-377 377-566 566l566 566c189-188 377-377 566-566l-566-566z m-2263 2263l-566 566 566 566 566-566-566-566z m5916 979l566 566-566 566-566-566 566-566z m-17455 1261c217 505 535 959 918 1354 169 131 329 272 480 423 912 912 1476 2172 1476 3564 0 1392-564 2652-1476 3564-166 166-343 320-531 462-370 385-668 840-873 1343-200 492-310 1031-310 1597 0 1088 410 2081 1084 2831 65 58 128 118 190 180 54 54 106 109 157 165 748 662 1732 1064 2809 1064 1171 0 2231-475 2998-1242 767-767 1242-1827 1242-2998 0-596-123-1163-344-1677-221-513-540-973-933-1357-118-98-232-202-340-311-911-911-1475-2171-1475-3564l-2 0c0-1392 564-2652 1476-3564 133-133 274-259 422-377 370-382 670-845 877-1357 205-506 318-1061 318-1633 0-1171-475-2231-1242-2998-767-767-1827-1242-2998-1242-1143 0-2180 452-2943 1188l-24 24c-19 19-39 39-59 58-751 765-1215 1814-1215 2971 0 551 115 1065 316 1533z m336-5073l24-24c19-19 39-39 59-58 751-765 1215-1814 1215-2971 0-1171-475-2231-1242-2998-767-767-1827-1242-2998-1242-1171 0-2231 475-2998 1242-767 767-1242 1827-1242 2998 0 1171 475 2231 1242 2998 86 86 176 169 270 248l1-1 19 18c734 610 1678 977 2708 977 1143 0 2180-452 2943-1188z m1723-1144c577-230 1206-356 1864-356 1392 0 2652 564 3564 1476 912 912 1476 2172 1476 3564 0 676-134 1332-378 1933-31 76-63 151-97 225 509-173 1054-267 1621-267 1392 0 2652 564 3564 1476 912 912 1476 2172 1476 3564 0 1392-564 2652-1476 3564-912 912-2172 1476-3564 1476-567 0-1112-94-1620-266 22 47 43 94 64 142 264 612 410 1285 410 1993 0 1392-564 2652-1476 3564-912 912-2172 1476-3564 1476-655 0-1281-125-1856-353 236 583 366 1220 366 1888 0 1392-564 2652-1476 3564-912 912-2172 1476-3564 1476-567 0-1112-94-1620-266 22 47 43 94 64 142 264 612 410 1285 410 1993 0 1392-564 2652-1476 3564-912 912-2172 1476-3564 1476-1392 0-2652-564-3564-1476-912-912-1476-2172-1476-3564 0-670 131-1311 370-1897 37-91 76-180 118-268-485 155-1001 239-1537 239-1392 0-2652-564-3564-1476-912-912-1476-2172-1476-3564 0-675 133-1319 373-1907-623 276-1313 429-2039 429-1392 0-2652-564-3564-1476-912-912-1476-2172-1476-3564 0-670 131-1310 370-1897 37-91 76-180 118-268-485 155-1001 239-1537 239-1392 0-2652-564-3564-1476-912-912-1476-2172-1476-3564 0-1392 564-2652 1476-3564 912-912 2172-1476 3564-1476 535 0 1050 83 1534 238-36-73-70-148-103-223-244-566-382-1185-382-1849 0-1392 564-2652 1476-3564 912-912 2172-1476 3564-1476 753 0 1467 165 2109 461-285-632-444-1333-444-2071 0-1392 564-2652 1476-3564 912-912 2172-1476 3564-1476 535 0 1050 83 1534 238-36-73-70-148-103-223-244-566-382-1185-382-1849 0-1392 564-2652 1476-3564 912-912 2172-1476 3564-1476 1392 0 2652 564 3564 1476 912 912 1476 2172 1476 3564 0 676-134 1332-378 1933-31 76-63 151-97 224 509-173 1054-267 1621-267 1392 0 2652 564 3564 1476 912 912 1476 2172 1476 3564 0 675-133 1320-374 1908z m-1227 8559c-767-767-1827-1242-2998-1242-1171 0-2231 475-2998 1242-767 767-1242 1827-1242 2998 0 1171 475 2231 1242 2998 767 767 1827 1242 2998 1242l0 2c1170 0 2230-475 2998-1243 767-767 1242-1827 1242-2998 0-1171-475-2231-1242-2998z m-1460 7798c-485 155-1001 238-1538 238l0 2c-707 0-1380-146-1991-409 259 607 403 1276 403 1978 0 676-134 1332-378 1933-31 76-63 151-97 224 509-173 1054-267 1621-267 655 0 1282 125 1856 353-236-583-366-1220-366-1888 0-670 131-1310 370-1897 37-91 77-181 119-269z m-6174-2822c-259-607-403-1276-403-1978 0-678 134-1325 377-1915-604 256-1267 397-1964 397-699 0-1364-142-1969-399 258 606 402 1274 402 1974 0 671-131 1312-370 1898 596-249 1251-386 1937-386 707 0 1380 146 1991 409z m19910-4918c-767-767-1827-1242-2998-1242-1171 0-2231 475-2998 1242-767 767-1242 1827-1242 2998l-2 0c0 1170 475 2230 1243 2998 86 86 176 169 270 248l1-1 19 18c735 610 1678 978 2708 978 1171 0 2231-475 2998-1242 767-767 1242-1827 1242-2998 0-1171-475-2231-1242-2998z m-12558 13650c-65-58-128-118-190-180-54-54-106-109-157-165-748-662-1732-1064-2809-1064-1171 0-2231 475-2998 1242-767 767-1242 1827-1242 2998 0 1171 475 2231 1242 2998 86 86 176 169 270 248l1-1 19 18c734 610 1678 977 2708 977 1171 0 2231-475 2998-1242 767-767 1242-1827 1242-2998 0-1088-410-2081-1084-2831z m-26060-16049c217 505 535 959 918 1354 169 131 329 272 480 423 912 912 1476 2172 1476 3564 0 1392-564 2652-1476 3564-166 166-344 321-532 462-370 384-668 839-872 1343-200 492-310 1031-310 1597 0 1171 475 2231 1242 2998 767 767 1827 1242 2998 1242 1171 0 2231-475 2998-1242 767-767 1242-1827 1242-2998 0-596-123-1163-344-1677-221-513-540-973-933-1357-118-98-232-202-340-311-911-911-1475-2171-1475-3564l-2 0c0-1392 564-2652 1476-3564 133-133 274-259 421-376 370-383 670-845 878-1358 205-506 318-1061 318-1633 0-1171-475-2231-1242-2998-767-767-1827-1242-2998-1242-1171 0-2231 475-2998 1242-767 767-1242 1827-1242 2998 0 551 115 1065 316 1533z m8519-3604c285 632 444 1333 444 2071 0 676-134 1332-378 1933-31 76-63 151-98 226 509-173 1054-266 1622-266l0-2c699 0 1364 142 1969 399-258-606-402-1274-402-1974 0-670 131-1311 370-1897 37-91 76-180 118-268-485 155-1001 239-1537 239-753 0-1467-165-2109-461z m-7687 5946c-767-767-1827-1242-2998-1242-1171 0-2231 475-2998 1242-767 767-1242 1827-1242 2998 0 1171 475 2231 1242 2998 767 767 1827 1242 2998 1242 1171 0 2231-475 2998-1242 767-767 1242-1827 1242-2998 0-1171-475-2231-1242-2998z m12275 57c-767-767-1827-1242-2998-1242l0-2c-1170 0-2230 475-2998 1243-767 767-1242 1827-1242 2998l-2 0c0 1170 475 2230 1243 2998 86 86 176 169 270 248l1-1 19 18c735 610 1678 978 2708 978 1171 0 2231-475 2998-1242 767-767 1242-1827 1242-2998 0-1171-475-2231-1242-2998z m-1060 7652c-596 249-1251 386-1938 386-567 0-1112-94-1620-266 22 47 43 94 64 142 264 612 410 1285 410 1993 0 675-133 1320-374 1908 623-276 1313-429 2039-429l0-2c535 0 1050 83 1534 238-36-73-70-148-103-223-244-566-382-1185-382-1849 0-671 131-1312 370-1898z m747-23574c217 505 535 959 918 1354 169 131 329 272 480 423 912 912 1476 2172 1476 3564 0 1392-564 2652-1476 3564-166 166-344 321-532 462-370 385-668 839-872 1343-200 492-310 1031-310 1597 0 1171 475 2231 1242 2998 767 767 1827 1242 2998 1242 1171 0 2231-475 2998-1242 767-767 1242-1827 1242-2998 0-596-123-1163-344-1677-221-513-540-973-932-1357-118-98-232-202-341-311-912-912-1476-2172-1476-3564 0-1392 564-2652 1476-3564 133-133 274-259 422-377 370-382 670-845 877-1357 205-506 318-1061 318-1633 0-1171-475-2231-1242-2998-767-767-1827-1242-2998-1242-1171 0-2231 475-2998 1242-767 767-1242 1827-1242 2998 0 551 115 1065 316 1533z m832 2342c-767-767-1827-1242-2998-1242-1171 0-2231 475-2998 1242-767 767-1242 1827-1242 2998 0 1171 475 2231 1242 2998 767 767 1827 1242 2998 1242 1171 0 2231-475 2998-1242 767-767 1242-1827 1242-2998 0-1171-475-2231-1242-2998z m-832 24663c217 505 535 959 918 1354 169 131 329 272 480 423 912 912 1476 2172 1476 3564 0 1392-564 2652-1476 3564-166 166-344 321-532 462-370 384-668 839-872 1343-200 492-310 1031-310 1597 0 1171 475 2231 1242 2998 767 767 1827 1242 2998 1242 1171 0 2231-475 2998-1242 767-767 1242-1827 1242-2998 0-596-123-1163-344-1677-221-513-540-973-933-1357-118-98-232-202-340-311-912-912-1476-2172-1476-3564 0-1392 564-2652 1476-3564 133-133 274-259 422-377 370-382 670-845 877-1357 205-506 318-1061 318-1633 0-1171-475-2231-1242-2998-767-767-1827-1242-2998-1242-1171 0-2231 475-2998 1242-767 767-1242 1827-1242 2998 0 551 115 1065 316 1533z m832 2342c-767-767-1827-1242-2998-1242l0-2c-1170 0-2230 475-2998 1243-767 767-1242 1827-1242 2998 0 1171 475 2231 1242 2998 767 767 1827 1242 2998 1242 1171 0 2231-475 2998-1242 767-767 1242-1827 1242-2998 0-1171-475-2231-1242-2998z" fill="#010c80" fill-rule="nonzero" data-fill-palette-color="accent"></path></g></svg></g></svg></g></svg></g></svg></g></svg></g></svg></g></svg><rect width="94.50071274263408" height="95.481" fill="none" stroke="none" visibility="hidden"></rect></g></svg></g></svg>