<svg xmlns="http://www.w3.org/2000/svg" version="1.1" xmlns:xlink="http://www.w3.org/1999/xlink" xmlns:svgjs="http://svgjs.dev/svgjs" width="2000" height="414" viewBox="0 0 2000 414"><g transform="matrix(1,0,0,1,-1.2121212121212466,0.06459456998882729)"><svg viewBox="0 0 396 82" data-background-color="#ffffff" preserveAspectRatio="xMidYMid meet" height="414" width="2000" xmlns="http://www.w3.org/2000/svg" xmlns:xlink="http://www.w3.org/1999/xlink"><defs></defs><g id="tight-bounds" transform="matrix(1,0,0,1,0.2400000000000091,-0.012794093572665588)"><svg viewBox="0 0 395.52 82.02558818714535" height="82.02558818714535" width="395.52"><g><svg viewBox="0 0 529.3715909716998 109.78462813263198" height="82.02558818714535" width="395.52"><g><rect width="4.040364128979959" height="79.83614419196462" x="406.0968694475915" y="14.97424197033368" fill="#0080ff" opacity="1" stroke-width="0" stroke="transparent" fill-opacity="1" class="rect-o-0" data-fill-palette-color="primary" rx="1%" id="o-0" data-palette-color="#0080ff"></rect></g><g transform="matrix(1,0,0,1,0,15.172839343945526)"><svg viewBox="0 0 395.52 79.43894944474093" height="79.43894944474093" width="395.52"><g><svg viewBox="0 0 395.52 79.43894944474093" height="79.43894944474093" width="395.52"><g><svg viewBox="0 0 395.52 44.8028153967007" height="44.8028153967007" width="395.52"><g transform="matrix(1,0,0,1,0,0)"><svg width="395.52" viewBox="4.349999904632568 -35.650001525878906 316.67999267578125 36.05000305175781" height="44.8028153967007" data-palette-color="#0080ff"><g class="undefined-text-0" data-fill-palette-color="primary" id="text-0"><path d="M21.1-9.7L34.3-35.25 37.65-35.25 37.65 0 33.9 0 33.95-27.3 22.5-5.6 19.6-5.6 8.1-27.1 8.15 0 4.35 0 4.35-35.25 7.75-35.25 21.1-9.7ZM77.5 0L73.35 0 69.45-9.05 51.05-9.05 47.15 0 42.95 0 58.45-35.25 62-35.25 77.5 0ZM60.25-30.5L52.5-12.45 68-12.45 60.25-30.5ZM82.75 0L82.75-35.25 96.7-35.25Q102.25-35.25 105.32-32.55 108.4-29.85 108.4-24.9L108.4-24.9Q108.4-19.95 105.3-17.2 102.2-14.45 96.7-14.45L96.7-14.45 86.85-14.45 86.85 0 82.75 0ZM86.85-17.85L96.3-17.85Q104.35-17.85 104.35-24.9L104.35-24.9Q104.35-31.85 96.3-31.85L96.3-31.85 86.85-31.85 86.85-17.85ZM126.19 0.4Q117.94 0.4 112.99-4.05L112.99-4.05 114.59-7.2Q117.19-5 119.92-4.05 122.64-3.1 126.24-3.1L126.24-3.1Q130.49-3.1 132.79-4.75 135.09-6.4 135.09-9.4L135.09-9.4Q135.09-11.15 133.99-12.25 132.89-13.35 131.09-14 129.29-14.65 126.24-15.35L126.24-15.35Q122.14-16.3 119.52-17.35 116.89-18.4 115.27-20.35 113.64-22.3 113.64-25.45L113.64-25.45Q113.64-28.45 115.22-30.78 116.79-33.1 119.72-34.38 122.64-35.65 126.49-35.65L126.49-35.65Q130.14-35.65 133.32-34.5 136.49-33.35 138.69-31.2L138.69-31.2 137.14-28.05Q134.64-30.2 132.07-31.18 129.49-32.15 126.49-32.15L126.49-32.15Q122.39-32.15 120.07-30.43 117.74-28.7 117.74-25.6L117.74-25.6Q117.74-22.95 119.79-21.6 121.84-20.25 125.99-19.3L125.99-19.3Q130.54-18.2 133.14-17.28 135.74-16.35 137.47-14.5 139.19-12.65 139.19-9.55L139.19-9.55Q139.19-6.55 137.62-4.3 136.04-2.05 133.09-0.83 130.14 0.4 126.19 0.4L126.19 0.4Z" fill="#0080ff" data-fill-palette-color="primary"></path><path d="M154.74 0.4Q146.49 0.4 141.54-4.05L141.54-4.05 143.14-7.2Q145.74-5 148.47-4.05 151.19-3.1 154.79-3.1L154.79-3.1Q159.04-3.1 161.34-4.75 163.64-6.4 163.64-9.4L163.64-9.4Q163.64-11.15 162.54-12.25 161.44-13.35 159.64-14 157.84-14.65 154.79-15.35L154.79-15.35Q150.69-16.3 148.07-17.35 145.44-18.4 143.82-20.35 142.19-22.3 142.19-25.45L142.19-25.45Q142.19-28.45 143.77-30.78 145.34-33.1 148.27-34.38 151.19-35.65 155.04-35.65L155.04-35.65Q158.69-35.65 161.87-34.5 165.04-33.35 167.24-31.2L167.24-31.2 165.69-28.05Q163.19-30.2 160.62-31.18 158.04-32.15 155.04-32.15L155.04-32.15Q150.94-32.15 148.62-30.43 146.29-28.7 146.29-25.6L146.29-25.6Q146.29-22.95 148.34-21.6 150.39-20.25 154.54-19.3L154.54-19.3Q159.09-18.2 161.69-17.28 164.29-16.35 166.02-14.5 167.74-12.65 167.74-9.55L167.74-9.55Q167.74-6.55 166.17-4.3 164.59-2.05 161.64-0.83 158.69 0.4 154.74 0.4L154.74 0.4ZM187.04 0L182.89 0 182.89-31.75 170.64-31.75 170.64-35.25 199.34-35.25 199.34-31.75 187.04-31.75 187.04 0ZM218.03 0.4Q211.14 0.4 207.59-3.2 204.03-6.8 204.03-13.8L204.03-13.8 204.03-35.25 208.09-35.25 208.09-13.45Q208.09-8.3 210.61-5.7 213.14-3.1 218.03-3.1L218.03-3.1Q222.94-3.1 225.44-5.7 227.94-8.3 227.94-13.45L227.94-13.45 227.94-35.25 232.03-35.25 232.03-13.8Q232.03-6.85 228.46-3.23 224.89 0.4 218.03 0.4L218.03 0.4ZM240.48 0L240.48-35.25 252.33-35.25Q260.78-35.25 265.41-30.68 270.03-26.1 270.03-17.65L270.03-17.65Q270.03-9.2 265.41-4.6 260.78 0 252.33 0L252.33 0 240.48 0ZM244.58-3.5L252.08-3.5Q265.78-3.5 265.78-17.65L265.78-17.65Q265.78-31.75 252.08-31.75L252.08-31.75 244.58-31.75 244.58-3.5ZM281.53 0L277.43 0 277.43-35.25 281.53-35.25 281.53 0ZM304.98 0.4Q300.08 0.4 296.45-1.8 292.83-4 290.88-8.05 288.93-12.1 288.93-17.6L288.93-17.6Q288.93-23.15 290.85-27.23 292.78-31.3 296.4-33.48 300.03-35.65 304.98-35.65L304.98-35.65Q309.93-35.65 313.55-33.48 317.18-31.3 319.1-27.23 321.03-23.15 321.03-17.65L321.03-17.65Q321.03-12.15 319.08-8.08 317.13-4 313.5-1.8 309.88 0.4 304.98 0.4L304.98 0.4ZM304.98-3.1Q310.58-3.1 313.7-6.88 316.83-10.65 316.83-17.65L316.83-17.65Q316.83-24.65 313.73-28.4 310.63-32.15 304.98-32.15L304.98-32.15Q299.38-32.15 296.25-28.38 293.13-24.6 293.13-17.65L293.13-17.65Q293.13-10.7 296.25-6.9 299.38-3.1 304.98-3.1L304.98-3.1Z" fill="#010c80" data-fill-palette-color="accent"></path></g></svg></g></svg></g><g transform="matrix(1,0,0,1,163.310208,55.379684844292214)"><svg viewBox="0 0 232.209792 24.059264600448703" height="24.059264600448703" width="232.209792"><g transform="matrix(1,0,0,1,0,0)"><svg width="232.209792" viewBox="2.549999952316284 -38.29999923706055 490.260009765625 50.79999923706055" height="24.059264600448703" data-palette-color="#0080ff"><path d="M32.8-12.75L32.8-0.9Q28 0.3 21.8 0.3L21.8 0.3Q11.4 0.3 6.5-4.7L6.5-4.7Q4.7-6.5 3.63-9.38 2.55-12.25 2.55-16.4 2.55-20.55 4.17-24.08 5.8-27.6 8.6-29.65L8.6-29.65Q14.15-33.75 21.8-33.75L21.8-33.75 32.1-33.3 32.4-24.2 30.8-24.2 29.1-30.75Q26.4-31.9 22.7-31.9L22.7-31.9Q16.65-31.9 12.68-27.93 8.7-23.95 8.7-16.35 8.7-8.75 12.58-5.13 16.45-1.5 22.5-1.5L22.5-1.5Q25.45-1.5 27.9-2.1L27.9-2.1 27.9-12.75 23.75-13.2 23.75-14.4 35.8-14.4 35.8-13.2 32.8-12.75ZM64.55-12.2Q64.55-6.65 61.2-3.05 57.85 0.55 52.07 0.55 46.3 0.55 42.95-3.05 39.6-6.65 39.6-12.2 39.6-17.75 42.95-21.35 46.3-24.95 52.07-24.95 57.85-24.95 61.2-21.35 64.55-17.75 64.55-12.2ZM45.05-12.2L45.05-12.2Q45.05-0.65 52.07-0.65 59.1-0.65 59.1-12.2L59.1-12.2Q59.1-17.8 57.5-20.75 55.9-23.7 52.1-23.7 48.3-23.7 46.67-20.75 45.05-17.8 45.05-12.2ZM88.05-7.65L88.05-7.65 88.05-21.4Q85.65-23.25 82.1-23.25L82.1-23.25Q77.65-23.25 76-19.6L76-19.6Q74.65-16.5 74.65-11.15L74.65-11.15Q74.65-0.8 80.25-0.8L80.25-0.8Q83.4-0.8 85.72-3.2 88.05-5.6 88.05-7.65ZM79.3 0.75L79.3 0.75Q75 0.75 72.05-2.33 69.1-5.4 69.1-11.53 69.1-17.65 72.67-21.2 76.25-24.75 82.2-24.75L82.2-24.75Q85.3-24.75 88.05-23.3L88.05-23.3 88.05-35.9 83.65-36.1 83.6-37.25 92.85-38.3 92.85-1.15 97.1-0.95 97.15 0.2 88.3 0.8 88.4-4 88.1-4Q86.9-1.75 84.45-0.5 82 0.75 79.3 0.75ZM100.19-33.85L104.54-33.85 103.44-22.6 101.24-22.6 100.19-33.85ZM118.09-0.7L118.09-0.7Q120.09-0.7 121.57-1.8 123.04-2.9 123.04-5.5L123.04-5.5Q123.04-7.25 121.47-8.4 119.89-9.55 117.54-10.48 115.19-11.4 114.37-11.78 113.54-12.15 112.19-13L112.19-13Q109.74-14.65 109.74-17.75 109.74-20.85 112.19-22.9 114.64-24.95 119.34-24.95L119.34-24.95Q122.34-24.95 124.47-23.63 126.59-22.3 126.59-20.45 126.59-18.6 125.19-17.9L125.19-17.9Q124.44-17.55 123.72-17.55 122.99-17.55 122.29-17.85L122.29-17.85Q122.49-18.75 122.49-19.8 122.49-20.85 121.99-21.9L121.99-21.9Q121.14-23.7 118.74-23.7 116.34-23.7 115.09-22.4 113.84-21.1 113.84-19L113.84-19Q113.84-16.85 115.64-15.8L115.64-15.8Q116.99-14.95 118.99-14.25 120.99-13.55 121.72-13.28 122.44-13 123.64-12.35 124.84-11.7 125.44-11L125.44-11Q126.99-9.3 126.99-6.4 126.99-3.5 124.39-1.48 121.79 0.55 118.04 0.55 114.29 0.55 111.47-0.6 108.64-1.75 108.64-3.95L108.64-3.95Q108.64-6 111.69-6.65L111.69-6.65Q112.59-0.7 118.09-0.7ZM175.59-33.4L184.89-33.4 184.89-32.25 180.64-31.75 181.74-1.5 185.59-1.2 185.59 0 172.89 0 172.89-1.05 176.69-1.5 175.39-27.3 165.34 0 162.69 0 150.69-27.05 149.74-2.45 153.94-1.2 153.94 0 143.69 0 143.69-1.2 147.84-2.65 148.84-31.75 144.59-32.25 144.59-33.4 153.44-33.4 165.34-5.55 175.59-33.4ZM194.28-5.4L194.28-5.4Q194.28-2.15 196.93-1.55L196.93-1.55Q197.53-1.4 198.08-1.4L198.08-1.4Q199.98-1.4 202.03-3.03 204.08-4.65 204.18-7.4L204.18-7.4 204.18-11.7Q194.28-11.6 194.28-5.4ZM196.28 0.6L196.28 0.6Q193.43 0.6 191.41-0.98 189.38-2.55 189.38-5.4L189.38-5.4Q189.43-9.25 193.26-11.15 197.08-13.05 204.18-13.05L204.18-13.05 204.18-17.35Q204.18-23.7 199.58-23.7L199.58-23.7Q197.23-23.7 195.78-21.75L195.78-21.75Q194.78-20.4 194.78-18.4L194.78-18.4Q194.78-17.55 194.98-16.6L194.98-16.6Q194.28-16.1 193.56-16.1 192.83-16.1 192.13-16.4L192.13-16.4Q190.53-17 190.53-18.7L190.53-18.7Q190.53-21 192.18-22.5L192.18-22.5Q194.88-24.95 199.63-24.95 204.38-24.95 206.53-22.93 208.68-20.9 208.68-16.55L208.68-16.55 208.68-1.4 212.88-1.2 212.93-0.05 204.58 0.55 204.13-3.9Q201.83 0.6 196.28 0.6ZM222.78-16.65L222.78-16.65 222.78-2.75Q225.18-0.9 228.73-0.9L228.73-0.9Q230.63-0.9 232.01-1.7 233.38-2.5 234.16-3.7 234.93-4.9 235.33-6.75L235.33-6.75Q236.03-9.7 236.03-14.2 236.03-18.7 234.48-21.05 232.93-23.4 230.13-23.4 227.33-23.4 225.06-21.03 222.78-18.65 222.78-16.65ZM231.78-24.95L231.78-24.95Q235.93-24.95 238.73-22.08 241.53-19.2 241.53-12.98 241.53-6.75 238.18-3.08 234.83 0.6 228.63 0.6L228.63 0.6Q225.38 0.6 222.78-0.85L222.78-0.85 222.78 11.05 226.28 11.3 226.28 12.5 214.78 12.5 214.78 11.3 217.88 11.05 217.88-22.8 213.58-23 213.58-24.15 222.58-24.7 222.43-20.35 222.88-20.35Q224.23-22.55 226.63-23.75 229.03-24.95 231.78-24.95ZM253.83-32.35L253.83-33.4 267.33-33.4 267.33-32.35 263.33-31.9 272.48-6.25 279.68-24.45 276.88-31.9 273.03-32.35 273.03-33.4 286.53-33.4 286.53-32.35 282.53-31.9 291.68-6.25 301.18-30.9 296.78-32.2 296.78-33.4 307.23-33.4 307.23-32.2 303.43-30.85 291.28 0.3 289.03 0.3 280.73-21.6 272.08 0.3 269.83 0.3 257.68-31.9 253.83-32.35ZM330.72-12.2Q330.72-6.65 327.37-3.05 324.02 0.55 318.25 0.55 312.47 0.55 309.12-3.05 305.77-6.65 305.77-12.2 305.77-17.75 309.12-21.35 312.47-24.95 318.25-24.95 324.02-24.95 327.37-21.35 330.72-17.75 330.72-12.2ZM311.22-12.2L311.22-12.2Q311.22-0.65 318.25-0.65 325.27-0.65 325.27-12.2L325.27-12.2Q325.27-17.8 323.67-20.75 322.07-23.7 318.27-23.7 314.47-23.7 312.85-20.75 311.22-17.8 311.22-12.2ZM350.52-25L350.52-25Q351.82-25 352.57-24.38 353.32-23.75 353.32-22.65L353.32-22.65Q353.32-20.75 351.87-20.15L351.87-20.15Q351.07-20.8 348.97-20.8 346.87-20.8 344.95-19.43 343.02-18.05 343.02-16.3L343.02-16.3 343.02-1.45 347.52-1.2 347.52 0 334.82 0 334.82-1.2 338.12-1.4 338.12-22.75 334.17-22.95 334.17-24.1 343.02-24.65 342.72-18.5 342.92-18.5Q343.77-21.2 346.05-23.1 348.32-25 350.52-25ZM370.67-23.25L370.67-24.4 380.47-24.4 380.47-23.25 376.77-22.3 367.22-14.1 378.32-1.55 381.67-1.2 381.67 0 369.82 0 369.82-1.2 372.62-1.45 363.32-12.4 363.32-1.45 366.42-1.2 366.42 0 355.17 0 355.17-1.2 358.42-1.45 358.42-35.9 354.02-36.1 353.97-37.25 363.32-38.3 363.32-13 373.92-22.3 370.67-23.25ZM393.37-0.7L393.37-0.7Q395.37-0.7 396.84-1.8 398.31-2.9 398.31-5.5L398.31-5.5Q398.31-7.25 396.74-8.4 395.17-9.55 392.81-10.48 390.46-11.4 389.64-11.78 388.81-12.15 387.46-13L387.46-13Q385.01-14.65 385.01-17.75 385.01-20.85 387.46-22.9 389.92-24.95 394.62-24.95L394.62-24.95Q397.62-24.95 399.74-23.63 401.87-22.3 401.87-20.45 401.87-18.6 400.46-17.9L400.46-17.9Q399.71-17.55 398.99-17.55 398.26-17.55 397.56-17.85L397.56-17.85Q397.76-18.75 397.76-19.8 397.76-20.85 397.26-21.9L397.26-21.9Q396.42-23.7 394.01-23.7 391.62-23.7 390.37-22.4 389.12-21.1 389.12-19L389.12-19Q389.12-16.85 390.92-15.8L390.92-15.8Q392.26-14.95 394.26-14.25 396.26-13.55 396.99-13.28 397.71-13 398.92-12.35 400.12-11.7 400.71-11L400.71-11Q402.26-9.3 402.26-6.4 402.26-3.5 399.67-1.48 397.06 0.55 393.31 0.55 389.56 0.55 386.74-0.6 383.92-1.75 383.92-3.95L383.92-3.95Q383.92-6 386.96-6.65L386.96-6.65Q387.87-0.7 393.37-0.7ZM422.66-24.75L422.66-24.75Q430.66-24.75 430.66-17.05L430.66-17.05Q430.66-11.5 430.31-1.45L430.31-1.45 433.86-1.2 433.86 0 422.71 0 422.71-1.2 425.41-1.4Q425.76-14.6 425.76-17.43 425.76-20.25 424.71-21.65 423.66-23.05 421.09-23.05 418.51-23.05 416.26-20.6 414.01-18.15 414.01-16.1L414.01-16.1 414.01-1.45 417.31-1.2 417.31 0 405.81 0 405.81-1.2 409.11-1.45 409.11-35.9 404.71-36.1 404.66-37.25 414.01-38.3Q413.71-21.15 413.66-20L413.66-20 414.06-20Q415.41-22.3 417.69-23.53 419.96-24.75 422.66-24.75ZM462.06-12.2Q462.06-6.65 458.71-3.05 455.36 0.55 449.59 0.55 443.81 0.55 440.46-3.05 437.11-6.65 437.11-12.2 437.11-17.75 440.46-21.35 443.81-24.95 449.59-24.95 455.36-24.95 458.71-21.35 462.06-17.75 462.06-12.2ZM442.56-12.2L442.56-12.2Q442.56-0.65 449.59-0.65 456.61-0.65 456.61-12.2L456.61-12.2Q456.61-17.8 455.01-20.75 453.41-23.7 449.61-23.7 445.81-23.7 444.19-20.75 442.56-17.8 442.56-12.2ZM474.06-16.65L474.06-16.65 474.06-2.75Q476.46-0.9 480.01-0.9L480.01-0.9Q481.91-0.9 483.28-1.7 484.66-2.5 485.43-3.7 486.21-4.9 486.61-6.75L486.61-6.75Q487.31-9.7 487.31-14.2 487.31-18.7 485.76-21.05 484.21-23.4 481.41-23.4 478.61-23.4 476.33-21.03 474.06-18.65 474.06-16.65ZM483.06-24.95L483.06-24.95Q487.21-24.95 490.01-22.08 492.81-19.2 492.81-12.98 492.81-6.75 489.46-3.08 486.11 0.6 479.91 0.6L479.91 0.6Q476.66 0.6 474.06-0.85L474.06-0.85 474.06 11.05 477.56 11.3 477.56 12.5 466.06 12.5 466.06 11.3 469.16 11.05 469.16-22.8 464.86-23 464.86-24.15 473.86-24.7 473.71-20.35 474.16-20.35Q475.51-22.55 477.91-23.75 480.31-24.95 483.06-24.95Z" opacity="1" transform="matrix(1,0,0,1,0,0)" fill="#0080ff" class="undefined-text-1" data-fill-palette-color="secondary" id="text-1"></path></svg></g></svg></g></svg></g></svg></g><g transform="matrix(1,0,0,1,420.7141030241629,0)"><svg viewBox="0 0 108.65748794753678 109.78462813263198" height="109.78462813263198" width="108.65748794753678"><g><svg xmlns="http://www.w3.org/2000/svg" xmlns:xlink="http://www.w3.org/1999/xlink" xml:space="preserve" version="1.1" style="shape-rendering:geometricPrecision;text-rendering:geometricPrecision;image-rendering:optimizeQuality;" viewBox="2235 1946 55527 56103" x="0" y="0" fill-rule="evenodd" clip-rule="evenodd" height="109.78462813263198" width="108.65748794753678" class="icon-icon-0" data-fill-palette-color="accent" id="icon-0"><g fill="#010c80" data-fill-palette-color="accent"><path class="" d="M39110 25093c-36-73-70-148-103-223-244-566-382-1185-382-1849 0-675 133-1320 374-1908-577 230-1206 356-1864 356-567 0-1112-94-1620-266 22 47 43 94 64 142 264 612 410 1285 410 1993 0 678-134 1325-377 1915 604-256 1267-397 1964-397 535 0 1050 83 1534 238z m16189 8784l-566 566-566-566 566-566 566 566z m-12920 21559l-566-566-566 566 566 566 566-566z m-2263-2263l-566-566-566 566 566 566 566-566z m-2263-2263l-566-566-566 566 566 566 566-566z m8928 2032l-566-566-566 566 566 566 566-566z m-2263-2263l-566-566-566 566 566 566 566-566z m-2263-2263l-566-566-566 566 566 566 566-566z m9650 2754l-566 566-566-566 566-566 566 566z m-2263-2263l-566 566-566-566 566-566 566 566z m-2263-2263l-566 566-566-566 566-566 566 566z m-2263-2263l-566 566-566-566 566-566 566 566z m-7586 13102l-566 566-566-566 566-566 566 566z m-2263-2263l-566 566-566-566 566-566 566 566z m18408-9176l-566-566-566 566 566 566 566-566z m-2263-2263l-566-566-566 566 566 566 566-566z m-2263-2263l-566-566-566 566 566 566 566-566z m7019 123l-566-566-566 566 566 566 566-566z m-2263-2263l-566-566-566 566 566 566 566-566z m-2263-2263l-566-566-566 566 566 566 566-566z m5916-979l-566 566-566-566 566-566 566 566z m-31717-30866l566-566 566 566-566 566-566-566z m-21559 12920l566 566 566-566-566-566-566 566z m2263 2263l566 566 566-566-566-566-566 566z m2263 2263l566 566 566-566-566-566-566 566z m-2032-8928l566 566 566-566-566-566-566 566z m2263 2263l566 566 566-566-566-566-566 566z m2263 2263l566 566 566-566-566-566-566 566z m-2754-9650l566-566 566 566-566 566-566-566z m2263 2263l566-566 566 566-566 566-566-566z m2263 2263l566-566 566 566-566 566-566-566z m2263 2263l566-566 566 566-566 566-566-566z m-13102 7586l566-566 566 566-566 566-566-566z m2263 2263l566-566 566 566-566 566-566-566z m9176-18408l566 566 566-566-566-566-566 566z m2263 2263l566 566 566-566-566-566-566 566z m2263 2263l566 566 566-566-566-566-566 566z m-123-7019l566 566 566-566-566-566-566 566z m2263 2263l566 566 566-566-566-566-566 566z m2263 2263l566 566 566-566-566-566-566 566z m979-5916l566-566 566 566-566 566-566-566z m3198 52399l-566-566 566-566 566 566-566 566z m-21559-12920l566-566-566-566-566 566 566 566z m2263-2263c189-189 377-377 566-566l-566-566c-188 189-377 377-566 566l566 566z m2263-2263c188-189 377-377 566-566l-566-566c-189 189-377 377-566 566l566 566z m-2032 8928l566-566-566-566-566 566 566 566z m2263-2263l566-566-566-566-566 566 566 566z m2263-2263l566-566-566-566-566 566 566 566z m-2754 9650l-566-566 566-566 566 566-566 566z m2263-2263l-566-566 566-566 566 566-566 566z m2263-2263l-566-566 566-566 566 566-566 566z m2263-2263l-566-566 566-566 566 566-566 566z m-13102-7586l-566-566 566-566 566 566-566 566z m2263-2263l-566-566 566-566 566 566-566 566z m9176 18408l566-566-566-566-566 566 566 566z m2263-2263c189-189 377-377 566-566l-566-566c-188 189-377 377-566 566l566 566z m2263-2263l566-566-566-566-566 566 566 566z m-123 7019l566-566-566-566-566 566 566 566z m2263-2263c189-189 377-377 566-566l-566-566c-188 189-377 377-566 566l566 566z m2263-2263c188-189 377-377 566-566l-566-566c-189 189-377 377-566 566l566 566z m979 5916l-566-566 566-566 566 566-566 566z m30416-32117l566 566-566 566-566-566 566-566z m-12920-21559l-566 566 566 566 566-566-566-566z m-2263 2263c-189 189-377 377-566 566l566 566c189-188 377-377 566-566l-566-566z m-2263 2263l-566 566 566 566 566-566-566-566z m8928-2032l-566 566 566 566 566-566-566-566z m-2263 2263c-188 189-377 377-566 566l566 566c189-189 377-377 566-566l-566-566z m-2263 2263l-566 566 566 566 566-566-566-566z m9650-2754l566 566-566 566-566-566 566-566z m-2263 2263l566 566-566 566-566-566 566-566z m-2263 2263l566 566-566 566-566-566 566-566z m-2263 2263l566 566-566 566-566-566 566-566z m-7586-13102l566 566-566 566-566-566 566-566z m-2263 2263l566 566-566 566-566-566 566-566z m18408 9176l-566 566 566 566 566-566-566-566z m-2263 2263c-188 189-377 377-566 566l566 566c189-189 377-377 566-566l-566-566z m-2263 2263l-566 566 566 566 566-566-566-566z m7019-123l-566 566 566 566 566-566-566-566z m-2263 2263c-189 189-377 377-566 566l566 566c189-188 377-377 566-566l-566-566z m-2263 2263l-566 566 566 566 566-566-566-566z m5916 979l566 566-566 566-566-566 566-566z m-17455 1261c217 505 535 959 918 1354 169 131 329 272 480 423 912 912 1476 2172 1476 3564 0 1392-564 2652-1476 3564-166 166-343 320-531 462-370 385-668 840-873 1343-200 492-310 1031-310 1597 0 1088 410 2081 1084 2831 65 58 128 118 190 180 54 54 106 109 157 165 748 662 1732 1064 2809 1064 1171 0 2231-475 2998-1242 767-767 1242-1827 1242-2998 0-596-123-1163-344-1677-221-513-540-973-933-1357-118-98-232-202-340-311-911-911-1475-2171-1475-3564l-2 0c0-1392 564-2652 1476-3564 133-133 274-259 422-377 370-382 670-845 877-1357 205-506 318-1061 318-1633 0-1171-475-2231-1242-2998-767-767-1827-1242-2998-1242-1143 0-2180 452-2943 1188l-24 24c-19 19-39 39-59 58-751 765-1215 1814-1215 2971 0 551 115 1065 316 1533z m336-5073l24-24c19-19 39-39 59-58 751-765 1215-1814 1215-2971 0-1171-475-2231-1242-2998-767-767-1827-1242-2998-1242-1171 0-2231 475-2998 1242-767 767-1242 1827-1242 2998 0 1171 475 2231 1242 2998 86 86 176 169 270 248l1-1 19 18c734 610 1678 977 2708 977 1143 0 2180-452 2943-1188z m1723-1144c577-230 1206-356 1864-356 1392 0 2652 564 3564 1476 912 912 1476 2172 1476 3564 0 676-134 1332-378 1933-31 76-63 151-97 225 509-173 1054-267 1621-267 1392 0 2652 564 3564 1476 912 912 1476 2172 1476 3564 0 1392-564 2652-1476 3564-912 912-2172 1476-3564 1476-567 0-1112-94-1620-266 22 47 43 94 64 142 264 612 410 1285 410 1993 0 1392-564 2652-1476 3564-912 912-2172 1476-3564 1476-655 0-1281-125-1856-353 236 583 366 1220 366 1888 0 1392-564 2652-1476 3564-912 912-2172 1476-3564 1476-567 0-1112-94-1620-266 22 47 43 94 64 142 264 612 410 1285 410 1993 0 1392-564 2652-1476 3564-912 912-2172 1476-3564 1476-1392 0-2652-564-3564-1476-912-912-1476-2172-1476-3564 0-670 131-1311 370-1897 37-91 76-180 118-268-485 155-1001 239-1537 239-1392 0-2652-564-3564-1476-912-912-1476-2172-1476-3564 0-675 133-1319 373-1907-623 276-1313 429-2039 429-1392 0-2652-564-3564-1476-912-912-1476-2172-1476-3564 0-670 131-1310 370-1897 37-91 76-180 118-268-485 155-1001 239-1537 239-1392 0-2652-564-3564-1476-912-912-1476-2172-1476-3564 0-1392 564-2652 1476-3564 912-912 2172-1476 3564-1476 535 0 1050 83 1534 238-36-73-70-148-103-223-244-566-382-1185-382-1849 0-1392 564-2652 1476-3564 912-912 2172-1476 3564-1476 753 0 1467 165 2109 461-285-632-444-1333-444-2071 0-1392 564-2652 1476-3564 912-912 2172-1476 3564-1476 535 0 1050 83 1534 238-36-73-70-148-103-223-244-566-382-1185-382-1849 0-1392 564-2652 1476-3564 912-912 2172-1476 3564-1476 1392 0 2652 564 3564 1476 912 912 1476 2172 1476 3564 0 676-134 1332-378 1933-31 76-63 151-97 224 509-173 1054-267 1621-267 1392 0 2652 564 3564 1476 912 912 1476 2172 1476 3564 0 675-133 1320-374 1908z m-1227 8559c-767-767-1827-1242-2998-1242-1171 0-2231 475-2998 1242-767 767-1242 1827-1242 2998 0 1171 475 2231 1242 2998 767 767 1827 1242 2998 1242l0 2c1170 0 2230-475 2998-1243 767-767 1242-1827 1242-2998 0-1171-475-2231-1242-2998z m-1460 7798c-485 155-1001 238-1538 238l0 2c-707 0-1380-146-1991-409 259 607 403 1276 403 1978 0 676-134 1332-378 1933-31 76-63 151-97 224 509-173 1054-267 1621-267 655 0 1282 125 1856 353-236-583-366-1220-366-1888 0-670 131-1310 370-1897 37-91 77-181 119-269z m-6174-2822c-259-607-403-1276-403-1978 0-678 134-1325 377-1915-604 256-1267 397-1964 397-699 0-1364-142-1969-399 258 606 402 1274 402 1974 0 671-131 1312-370 1898 596-249 1251-386 1937-386 707 0 1380 146 1991 409z m19910-4918c-767-767-1827-1242-2998-1242-1171 0-2231 475-2998 1242-767 767-1242 1827-1242 2998l-2 0c0 1170 475 2230 1243 2998 86 86 176 169 270 248l1-1 19 18c735 610 1678 978 2708 978 1171 0 2231-475 2998-1242 767-767 1242-1827 1242-2998 0-1171-475-2231-1242-2998z m-12558 13650c-65-58-128-118-190-180-54-54-106-109-157-165-748-662-1732-1064-2809-1064-1171 0-2231 475-2998 1242-767 767-1242 1827-1242 2998 0 1171 475 2231 1242 2998 86 86 176 169 270 248l1-1 19 18c734 610 1678 977 2708 977 1171 0 2231-475 2998-1242 767-767 1242-1827 1242-2998 0-1088-410-2081-1084-2831z m-26060-16049c217 505 535 959 918 1354 169 131 329 272 480 423 912 912 1476 2172 1476 3564 0 1392-564 2652-1476 3564-166 166-344 321-532 462-370 384-668 839-872 1343-200 492-310 1031-310 1597 0 1171 475 2231 1242 2998 767 767 1827 1242 2998 1242 1171 0 2231-475 2998-1242 767-767 1242-1827 1242-2998 0-596-123-1163-344-1677-221-513-540-973-933-1357-118-98-232-202-340-311-911-911-1475-2171-1475-3564l-2 0c0-1392 564-2652 1476-3564 133-133 274-259 421-376 370-383 670-845 878-1358 205-506 318-1061 318-1633 0-1171-475-2231-1242-2998-767-767-1827-1242-2998-1242-1171 0-2231 475-2998 1242-767 767-1242 1827-1242 2998 0 551 115 1065 316 1533z m8519-3604c285 632 444 1333 444 2071 0 676-134 1332-378 1933-31 76-63 151-98 226 509-173 1054-266 1622-266l0-2c699 0 1364 142 1969 399-258-606-402-1274-402-1974 0-670 131-1311 370-1897 37-91 76-180 118-268-485 155-1001 239-1537 239-753 0-1467-165-2109-461z m-7687 5946c-767-767-1827-1242-2998-1242-1171 0-2231 475-2998 1242-767 767-1242 1827-1242 2998 0 1171 475 2231 1242 2998 767 767 1827 1242 2998 1242 1171 0 2231-475 2998-1242 767-767 1242-1827 1242-2998 0-1171-475-2231-1242-2998z m12275 57c-767-767-1827-1242-2998-1242l0-2c-1170 0-2230 475-2998 1243-767 767-1242 1827-1242 2998l-2 0c0 1170 475 2230 1243 2998 86 86 176 169 270 248l1-1 19 18c735 610 1678 978 2708 978 1171 0 2231-475 2998-1242 767-767 1242-1827 1242-2998 0-1171-475-2231-1242-2998z m-1060 7652c-596 249-1251 386-1938 386-567 0-1112-94-1620-266 22 47 43 94 64 142 264 612 410 1285 410 1993 0 675-133 1320-374 1908 623-276 1313-429 2039-429l0-2c535 0 1050 83 1534 238-36-73-70-148-103-223-244-566-382-1185-382-1849 0-671 131-1312 370-1898z m747-23574c217 505 535 959 918 1354 169 131 329 272 480 423 912 912 1476 2172 1476 3564 0 1392-564 2652-1476 3564-166 166-344 321-532 462-370 385-668 839-872 1343-200 492-310 1031-310 1597 0 1171 475 2231 1242 2998 767 767 1827 1242 2998 1242 1171 0 2231-475 2998-1242 767-767 1242-1827 1242-2998 0-596-123-1163-344-1677-221-513-540-973-932-1357-118-98-232-202-341-311-912-912-1476-2172-1476-3564 0-1392 564-2652 1476-3564 133-133 274-259 422-377 370-382 670-845 877-1357 205-506 318-1061 318-1633 0-1171-475-2231-1242-2998-767-767-1827-1242-2998-1242-1171 0-2231 475-2998 1242-767 767-1242 1827-1242 2998 0 551 115 1065 316 1533z m832 2342c-767-767-1827-1242-2998-1242-1171 0-2231 475-2998 1242-767 767-1242 1827-1242 2998 0 1171 475 2231 1242 2998 767 767 1827 1242 2998 1242 1171 0 2231-475 2998-1242 767-767 1242-1827 1242-2998 0-1171-475-2231-1242-2998z m-832 24663c217 505 535 959 918 1354 169 131 329 272 480 423 912 912 1476 2172 1476 3564 0 1392-564 2652-1476 3564-166 166-344 321-532 462-370 384-668 839-872 1343-200 492-310 1031-310 1597 0 1171 475 2231 1242 2998 767 767 1827 1242 2998 1242 1171 0 2231-475 2998-1242 767-767 1242-1827 1242-2998 0-596-123-1163-344-1677-221-513-540-973-933-1357-118-98-232-202-340-311-912-912-1476-2172-1476-3564 0-1392 564-2652 1476-3564 133-133 274-259 422-377 370-382 670-845 877-1357 205-506 318-1061 318-1633 0-1171-475-2231-1242-2998-767-767-1827-1242-2998-1242-1171 0-2231 475-2998 1242-767 767-1242 1827-1242 2998 0 551 115 1065 316 1533z m832 2342c-767-767-1827-1242-2998-1242l0-2c-1170 0-2230 475-2998 1243-767 767-1242 1827-1242 2998 0 1171 475 2231 1242 2998 767 767 1827 1242 2998 1242 1171 0 2231-475 2998-1242 767-767 1242-1827 1242-2998 0-1171-475-2231-1242-2998z" fill="#010c80" fill-rule="nonzero" data-fill-palette-color="accent"></path></g></svg></g></svg></g></svg></g></svg><rect width="395.52" height="82.02558818714535" fill="none" stroke="none" visibility="hidden"></rect></g></svg></g></svg>