<svg xmlns="http://www.w3.org/2000/svg" version="1.1" xmlns:xlink="http://www.w3.org/1999/xlink" xmlns:svgjs="http://svgjs.dev/svgjs" width="2000" height="1247" viewBox="0 0 2000 1247"><g transform="matrix(1,0,0,1,-1.2121212121212466,0.504858299595071)"><svg viewBox="0 0 396 247" data-background-color="#010c80" preserveAspectRatio="xMidYMid meet" height="1247" width="2000" xmlns="http://www.w3.org/2000/svg" xmlns:xlink="http://www.w3.org/1999/xlink"><defs></defs><g id="tight-bounds" transform="matrix(1,0,0,1,0.2400000000000091,-0.09999999999999432)"><svg viewBox="0 0 395.52 247.2" height="247.2" width="395.52"><g><svg></svg></g><g><svg viewBox="0 0 395.52 247.2" height="247.2" width="395.52"><g transform="matrix(0.004370532770083596, 0, 0, 0.004370532770083596, 76.41871343778408, 1.0000000000000142)"><svg xmlns="http://www.w3.org/2000/svg" xmlns:xlink="http://www.w3.org/1999/xlink" xml:space="preserve" version="1.1" style="shape-rendering:geometricPrecision;text-rendering:geometricPrecision;image-rendering:optimizeQuality;" viewBox="2235 1946 55527 56103" x="0" y="0" fill-rule="evenodd" clip-rule="evenodd" height="56103" width="55527" class="icon-none" data-fill-palette-color="accent" id="none"><g fill="#f8fafc" data-fill-palette-color="accent"><path class="" d="M39110 25093c-36-73-70-148-103-223-244-566-382-1185-382-1849 0-675 133-1320 374-1908-577 230-1206 356-1864 356-567 0-1112-94-1620-266 22 47 43 94 64 142 264 612 410 1285 410 1993 0 678-134 1325-377 1915 604-256 1267-397 1964-397 535 0 1050 83 1534 238z m16189 8784l-566 566-566-566 566-566 566 566z m-12920 21559l-566-566-566 566 566 566 566-566z m-2263-2263l-566-566-566 566 566 566 566-566z m-2263-2263l-566-566-566 566 566 566 566-566z m8928 2032l-566-566-566 566 566 566 566-566z m-2263-2263l-566-566-566 566 566 566 566-566z m-2263-2263l-566-566-566 566 566 566 566-566z m9650 2754l-566 566-566-566 566-566 566 566z m-2263-2263l-566 566-566-566 566-566 566 566z m-2263-2263l-566 566-566-566 566-566 566 566z m-2263-2263l-566 566-566-566 566-566 566 566z m-7586 13102l-566 566-566-566 566-566 566 566z m-2263-2263l-566 566-566-566 566-566 566 566z m18408-9176l-566-566-566 566 566 566 566-566z m-2263-2263l-566-566-566 566 566 566 566-566z m-2263-2263l-566-566-566 566 566 566 566-566z m7019 123l-566-566-566 566 566 566 566-566z m-2263-2263l-566-566-566 566 566 566 566-566z m-2263-2263l-566-566-566 566 566 566 566-566z m5916-979l-566 566-566-566 566-566 566 566z m-31717-30866l566-566 566 566-566 566-566-566z m-21559 12920l566 566 566-566-566-566-566 566z m2263 2263l566 566 566-566-566-566-566 566z m2263 2263l566 566 566-566-566-566-566 566z m-2032-8928l566 566 566-566-566-566-566 566z m2263 2263l566 566 566-566-566-566-566 566z m2263 2263l566 566 566-566-566-566-566 566z m-2754-9650l566-566 566 566-566 566-566-566z m2263 2263l566-566 566 566-566 566-566-566z m2263 2263l566-566 566 566-566 566-566-566z m2263 2263l566-566 566 566-566 566-566-566z m-13102 7586l566-566 566 566-566 566-566-566z m2263 2263l566-566 566 566-566 566-566-566z m9176-18408l566 566 566-566-566-566-566 566z m2263 2263l566 566 566-566-566-566-566 566z m2263 2263l566 566 566-566-566-566-566 566z m-123-7019l566 566 566-566-566-566-566 566z m2263 2263l566 566 566-566-566-566-566 566z m2263 2263l566 566 566-566-566-566-566 566z m979-5916l566-566 566 566-566 566-566-566z m3198 52399l-566-566 566-566 566 566-566 566z m-21559-12920l566-566-566-566-566 566 566 566z m2263-2263c189-189 377-377 566-566l-566-566c-188 189-377 377-566 566l566 566z m2263-2263c188-189 377-377 566-566l-566-566c-189 189-377 377-566 566l566 566z m-2032 8928l566-566-566-566-566 566 566 566z m2263-2263l566-566-566-566-566 566 566 566z m2263-2263l566-566-566-566-566 566 566 566z m-2754 9650l-566-566 566-566 566 566-566 566z m2263-2263l-566-566 566-566 566 566-566 566z m2263-2263l-566-566 566-566 566 566-566 566z m2263-2263l-566-566 566-566 566 566-566 566z m-13102-7586l-566-566 566-566 566 566-566 566z m2263-2263l-566-566 566-566 566 566-566 566z m9176 18408l566-566-566-566-566 566 566 566z m2263-2263c189-189 377-377 566-566l-566-566c-188 189-377 377-566 566l566 566z m2263-2263l566-566-566-566-566 566 566 566z m-123 7019l566-566-566-566-566 566 566 566z m2263-2263c189-189 377-377 566-566l-566-566c-188 189-377 377-566 566l566 566z m2263-2263c188-189 377-377 566-566l-566-566c-189 189-377 377-566 566l566 566z m979 5916l-566-566 566-566 566 566-566 566z m30416-32117l566 566-566 566-566-566 566-566z m-12920-21559l-566 566 566 566 566-566-566-566z m-2263 2263c-189 189-377 377-566 566l566 566c189-188 377-377 566-566l-566-566z m-2263 2263l-566 566 566 566 566-566-566-566z m8928-2032l-566 566 566 566 566-566-566-566z m-2263 2263c-188 189-377 377-566 566l566 566c189-189 377-377 566-566l-566-566z m-2263 2263l-566 566 566 566 566-566-566-566z m9650-2754l566 566-566 566-566-566 566-566z m-2263 2263l566 566-566 566-566-566 566-566z m-2263 2263l566 566-566 566-566-566 566-566z m-2263 2263l566 566-566 566-566-566 566-566z m-7586-13102l566 566-566 566-566-566 566-566z m-2263 2263l566 566-566 566-566-566 566-566z m18408 9176l-566 566 566 566 566-566-566-566z m-2263 2263c-188 189-377 377-566 566l566 566c189-189 377-377 566-566l-566-566z m-2263 2263l-566 566 566 566 566-566-566-566z m7019-123l-566 566 566 566 566-566-566-566z m-2263 2263c-189 189-377 377-566 566l566 566c189-188 377-377 566-566l-566-566z m-2263 2263l-566 566 566 566 566-566-566-566z m5916 979l566 566-566 566-566-566 566-566z m-17455 1261c217 505 535 959 918 1354 169 131 329 272 480 423 912 912 1476 2172 1476 3564 0 1392-564 2652-1476 3564-166 166-343 320-531 462-370 385-668 840-873 1343-200 492-310 1031-310 1597 0 1088 410 2081 1084 2831 65 58 128 118 190 180 54 54 106 109 157 165 748 662 1732 1064 2809 1064 1171 0 2231-475 2998-1242 767-767 1242-1827 1242-2998 0-596-123-1163-344-1677-221-513-540-973-933-1357-118-98-232-202-340-311-911-911-1475-2171-1475-3564l-2 0c0-1392 564-2652 1476-3564 133-133 274-259 422-377 370-382 670-845 877-1357 205-506 318-1061 318-1633 0-1171-475-2231-1242-2998-767-767-1827-1242-2998-1242-1143 0-2180 452-2943 1188l-24 24c-19 19-39 39-59 58-751 765-1215 1814-1215 2971 0 551 115 1065 316 1533z m336-5073l24-24c19-19 39-39 59-58 751-765 1215-1814 1215-2971 0-1171-475-2231-1242-2998-767-767-1827-1242-2998-1242-1171 0-2231 475-2998 1242-767 767-1242 1827-1242 2998 0 1171 475 2231 1242 2998 86 86 176 169 270 248l1-1 19 18c734 610 1678 977 2708 977 1143 0 2180-452 2943-1188z m1723-1144c577-230 1206-356 1864-356 1392 0 2652 564 3564 1476 912 912 1476 2172 1476 3564 0 676-134 1332-378 1933-31 76-63 151-97 225 509-173 1054-267 1621-267 1392 0 2652 564 3564 1476 912 912 1476 2172 1476 3564 0 1392-564 2652-1476 3564-912 912-2172 1476-3564 1476-567 0-1112-94-1620-266 22 47 43 94 64 142 264 612 410 1285 410 1993 0 1392-564 2652-1476 3564-912 912-2172 1476-3564 1476-655 0-1281-125-1856-353 236 583 366 1220 366 1888 0 1392-564 2652-1476 3564-912 912-2172 1476-3564 1476-567 0-1112-94-1620-266 22 47 43 94 64 142 264 612 410 1285 410 1993 0 1392-564 2652-1476 3564-912 912-2172 1476-3564 1476-1392 0-2652-564-3564-1476-912-912-1476-2172-1476-3564 0-670 131-1311 370-1897 37-91 76-180 118-268-485 155-1001 239-1537 239-1392 0-2652-564-3564-1476-912-912-1476-2172-1476-3564 0-675 133-1319 373-1907-623 276-1313 429-2039 429-1392 0-2652-564-3564-1476-912-912-1476-2172-1476-3564 0-670 131-1310 370-1897 37-91 76-180 118-268-485 155-1001 239-1537 239-1392 0-2652-564-3564-1476-912-912-1476-2172-1476-3564 0-1392 564-2652 1476-3564 912-912 2172-1476 3564-1476 535 0 1050 83 1534 238-36-73-70-148-103-223-244-566-382-1185-382-1849 0-1392 564-2652 1476-3564 912-912 2172-1476 3564-1476 753 0 1467 165 2109 461-285-632-444-1333-444-2071 0-1392 564-2652 1476-3564 912-912 2172-1476 3564-1476 535 0 1050 83 1534 238-36-73-70-148-103-223-244-566-382-1185-382-1849 0-1392 564-2652 1476-3564 912-912 2172-1476 3564-1476 1392 0 2652 564 3564 1476 912 912 1476 2172 1476 3564 0 676-134 1332-378 1933-31 76-63 151-97 224 509-173 1054-267 1621-267 1392 0 2652 564 3564 1476 912 912 1476 2172 1476 3564 0 675-133 1320-374 1908z m-1227 8559c-767-767-1827-1242-2998-1242-1171 0-2231 475-2998 1242-767 767-1242 1827-1242 2998 0 1171 475 2231 1242 2998 767 767 1827 1242 2998 1242l0 2c1170 0 2230-475 2998-1243 767-767 1242-1827 1242-2998 0-1171-475-2231-1242-2998z m-1460 7798c-485 155-1001 238-1538 238l0 2c-707 0-1380-146-1991-409 259 607 403 1276 403 1978 0 676-134 1332-378 1933-31 76-63 151-97 224 509-173 1054-267 1621-267 655 0 1282 125 1856 353-236-583-366-1220-366-1888 0-670 131-1310 370-1897 37-91 77-181 119-269z m-6174-2822c-259-607-403-1276-403-1978 0-678 134-1325 377-1915-604 256-1267 397-1964 397-699 0-1364-142-1969-399 258 606 402 1274 402 1974 0 671-131 1312-370 1898 596-249 1251-386 1937-386 707 0 1380 146 1991 409z m19910-4918c-767-767-1827-1242-2998-1242-1171 0-2231 475-2998 1242-767 767-1242 1827-1242 2998l-2 0c0 1170 475 2230 1243 2998 86 86 176 169 270 248l1-1 19 18c735 610 1678 978 2708 978 1171 0 2231-475 2998-1242 767-767 1242-1827 1242-2998 0-1171-475-2231-1242-2998z m-12558 13650c-65-58-128-118-190-180-54-54-106-109-157-165-748-662-1732-1064-2809-1064-1171 0-2231 475-2998 1242-767 767-1242 1827-1242 2998 0 1171 475 2231 1242 2998 86 86 176 169 270 248l1-1 19 18c734 610 1678 977 2708 977 1171 0 2231-475 2998-1242 767-767 1242-1827 1242-2998 0-1088-410-2081-1084-2831z m-26060-16049c217 505 535 959 918 1354 169 131 329 272 480 423 912 912 1476 2172 1476 3564 0 1392-564 2652-1476 3564-166 166-344 321-532 462-370 384-668 839-872 1343-200 492-310 1031-310 1597 0 1171 475 2231 1242 2998 767 767 1827 1242 2998 1242 1171 0 2231-475 2998-1242 767-767 1242-1827 1242-2998 0-596-123-1163-344-1677-221-513-540-973-933-1357-118-98-232-202-340-311-911-911-1475-2171-1475-3564l-2 0c0-1392 564-2652 1476-3564 133-133 274-259 421-376 370-383 670-845 878-1358 205-506 318-1061 318-1633 0-1171-475-2231-1242-2998-767-767-1827-1242-2998-1242-1171 0-2231 475-2998 1242-767 767-1242 1827-1242 2998 0 551 115 1065 316 1533z m8519-3604c285 632 444 1333 444 2071 0 676-134 1332-378 1933-31 76-63 151-98 226 509-173 1054-266 1622-266l0-2c699 0 1364 142 1969 399-258-606-402-1274-402-1974 0-670 131-1311 370-1897 37-91 76-180 118-268-485 155-1001 239-1537 239-753 0-1467-165-2109-461z m-7687 5946c-767-767-1827-1242-2998-1242-1171 0-2231 475-2998 1242-767 767-1242 1827-1242 2998 0 1171 475 2231 1242 2998 767 767 1827 1242 2998 1242 1171 0 2231-475 2998-1242 767-767 1242-1827 1242-2998 0-1171-475-2231-1242-2998z m12275 57c-767-767-1827-1242-2998-1242l0-2c-1170 0-2230 475-2998 1243-767 767-1242 1827-1242 2998l-2 0c0 1170 475 2230 1243 2998 86 86 176 169 270 248l1-1 19 18c735 610 1678 978 2708 978 1171 0 2231-475 2998-1242 767-767 1242-1827 1242-2998 0-1171-475-2231-1242-2998z m-1060 7652c-596 249-1251 386-1938 386-567 0-1112-94-1620-266 22 47 43 94 64 142 264 612 410 1285 410 1993 0 675-133 1320-374 1908 623-276 1313-429 2039-429l0-2c535 0 1050 83 1534 238-36-73-70-148-103-223-244-566-382-1185-382-1849 0-671 131-1312 370-1898z m747-23574c217 505 535 959 918 1354 169 131 329 272 480 423 912 912 1476 2172 1476 3564 0 1392-564 2652-1476 3564-166 166-344 321-532 462-370 385-668 839-872 1343-200 492-310 1031-310 1597 0 1171 475 2231 1242 2998 767 767 1827 1242 2998 1242 1171 0 2231-475 2998-1242 767-767 1242-1827 1242-2998 0-596-123-1163-344-1677-221-513-540-973-932-1357-118-98-232-202-341-311-912-912-1476-2172-1476-3564 0-1392 564-2652 1476-3564 133-133 274-259 422-377 370-382 670-845 877-1357 205-506 318-1061 318-1633 0-1171-475-2231-1242-2998-767-767-1827-1242-2998-1242-1171 0-2231 475-2998 1242-767 767-1242 1827-1242 2998 0 551 115 1065 316 1533z m832 2342c-767-767-1827-1242-2998-1242-1171 0-2231 475-2998 1242-767 767-1242 1827-1242 2998 0 1171 475 2231 1242 2998 767 767 1827 1242 2998 1242 1171 0 2231-475 2998-1242 767-767 1242-1827 1242-2998 0-1171-475-2231-1242-2998z m-832 24663c217 505 535 959 918 1354 169 131 329 272 480 423 912 912 1476 2172 1476 3564 0 1392-564 2652-1476 3564-166 166-344 321-532 462-370 384-668 839-872 1343-200 492-310 1031-310 1597 0 1171 475 2231 1242 2998 767 767 1827 1242 2998 1242 1171 0 2231-475 2998-1242 767-767 1242-1827 1242-2998 0-596-123-1163-344-1677-221-513-540-973-933-1357-118-98-232-202-340-311-912-912-1476-2172-1476-3564 0-1392 564-2652 1476-3564 133-133 274-259 422-377 370-382 670-845 877-1357 205-506 318-1061 318-1633 0-1171-475-2231-1242-2998-767-767-1827-1242-2998-1242-1171 0-2231 475-2998 1242-767 767-1242 1827-1242 2998 0 551 115 1065 316 1533z m832 2342c-767-767-1827-1242-2998-1242l0-2c-1170 0-2230 475-2998 1243-767 767-1242 1827-1242 2998 0 1171 475 2231 1242 2998 767 767 1827 1242 2998 1242 1171 0 2231-475 2998-1242 767-767 1242-1827 1242-2998 0-1171-475-2231-1242-2998z" fill="#f8fafc" fill-rule="nonzero" data-fill-palette-color="accent"></path></g></svg></g><rect width="348.05760000000004" height="68.43274606734884" fill="#010c80" y="89.38362696632558" x="23.731199999999973" data-fill-palette-color="quaternary"></rect><g transform="matrix(1,0,0,1,39.55199999999999,100.35758139534883)"><svg viewBox="0 0 316.416 46.48483720930233" height="46.48483720930233" width="316.416"><g><svg viewBox="0 0 316.416 46.48483720930233" height="46.48483720930233" width="316.416"><g><svg viewBox="0 0 316.416 46.48483720930233" height="46.48483720930233" width="316.416"><g><svg viewBox="0 0 316.416 46.48483720930233" height="46.48483720930233" width="316.416"><g><svg viewBox="0 0 316.416 46.48483720930233" height="46.48483720930233" width="316.416"><g><svg viewBox="0 0 316.416 46.48483720930233" height="46.48483720930233" width="316.416"><g transform="matrix(1,0,0,1,0,0)"><svg width="316.416" viewBox="3.0999999046325684 -37.5 324.3699951171875 47.65999984741211" height="46.48483720930233" data-palette-color="#f8fafc"><path d="M14.99-22.19L11.62-35.55 3.1-35.55 3.1 0 9.4 0 9.4-10.52 9.11-26.49 13.28-11.72 16.67-11.72 21.34-27.15 21.04-10.52 21.04 0 27.34 0 27.34-35.55 18.82-35.55 14.99-22.19ZM49.95 0L49.95 0 56.83 0 56.83-0.42Q56.32-1.42 56.05-2.81 55.78-4.2 55.78-6.32L55.78-6.32 55.78-17.65Q55.78-19.95 54.93-21.69 54.07-23.44 52.56-24.58L52.56-24.58Q51.05-25.73 48.98-26.32 46.92-26.9 44.53-26.9L44.53-26.9Q41.87-26.9 39.8-26.23 37.74-25.56 36.33-24.41L36.33-24.41Q34.89-23.27 34.14-21.75 33.4-20.24 33.4-18.55L33.4-18.55 40.18-18.55Q40.18-19.26 40.39-19.85 40.6-20.43 41.04-20.85L41.04-20.85Q41.53-21.31 42.31-21.57 43.09-21.83 44.16-21.83L44.16-21.83Q45.38-21.83 46.3-21.52 47.21-21.22 47.82-20.65L47.82-20.65Q48.41-20.12 48.7-19.37 49-18.63 49-17.7L49-17.7 49-16.14 45.21-16.14Q42.28-16.14 40.02-15.61 37.77-15.09 36.23-14.09L36.23-14.09Q34.52-12.99 33.66-11.29 32.81-9.59 32.81-7.4L32.81-7.4Q32.81-5.69 33.49-4.24 34.18-2.78 35.4-1.73L35.4-1.73Q36.62-0.68 38.32-0.1 40.01 0.49 42.04 0.49L42.04 0.49Q43.28 0.49 44.36 0.26 45.43 0.02 46.34-0.39L46.34-0.39Q47.21-0.78 47.95-1.32 48.68-1.86 49.24-2.47L49.24-2.47Q49.36-1.76 49.53-1.12 49.7-0.49 49.95 0ZM43.48-4.76L43.48-4.76Q42.53-4.76 41.81-4.99 41.09-5.22 40.6-5.62L40.6-5.62Q40.11-6.03 39.85-6.63 39.6-7.23 39.6-7.93L39.6-7.93Q39.6-8.84 39.94-9.61 40.28-10.38 40.99-10.94L40.99-10.94Q41.7-11.47 42.82-11.78 43.94-12.08 45.53-12.08L45.53-12.08 49-12.08 49-7.54Q48.7-7.03 48.19-6.53 47.68-6.03 46.97-5.64L46.97-5.64Q46.26-5.25 45.38-5 44.5-4.76 43.48-4.76ZM63.54-26.42L63.54 10.16 70.33 10.16 70.33-2.29Q70.8-1.78 71.31-1.37 71.82-0.95 72.38-0.61L72.38-0.61Q73.33-0.07 74.45 0.21 75.56 0.49 76.87 0.49L76.87 0.49Q79.37 0.49 81.29-0.54 83.22-1.56 84.54-3.37L84.54-3.37Q85.83-5.15 86.51-7.62 87.18-10.08 87.18-12.96L87.18-12.96 87.18-13.48Q87.18-16.48 86.51-18.96 85.83-21.44 84.52-23.22L84.52-23.22Q83.2-24.98 81.27-25.94 79.34-26.9 76.83-26.9L76.83-26.9Q75.61-26.9 74.54-26.65 73.48-26.39 72.6-25.93L72.6-25.93Q71.87-25.54 71.24-25.01 70.6-24.49 70.06-23.83L70.06-23.83 69.82-26.42 63.54-26.42ZM80.39-13.48L80.39-13.48 80.39-12.96Q80.39-11.33 80.1-9.88 79.8-8.42 79.17-7.32L79.17-7.32Q78.54-6.23 77.52-5.59 76.51-4.96 75.07-4.96L75.07-4.96Q74.16-4.96 73.43-5.14 72.7-5.32 72.14-5.66L72.14-5.66Q71.55-6.03 71.1-6.54 70.65-7.06 70.33-7.69L70.33-7.69 70.33-18.73Q70.67-19.41 71.15-19.92 71.63-20.43 72.26-20.78L72.26-20.78Q72.82-21.07 73.51-21.23 74.19-21.39 75.02-21.39L75.02-21.39Q76.46-21.39 77.47-20.78 78.49-20.17 79.15-19.12L79.15-19.12Q79.78-18.04 80.09-16.59 80.39-15.14 80.39-13.48ZM110.49-7.25L110.49-7.25Q110.49-6.64 110.19-6.13 109.88-5.62 109.27-5.22L109.27-5.22Q108.64-4.83 107.65-4.6 106.66-4.37 105.34-4.37L105.34-4.37Q104.24-4.37 103.2-4.59 102.17-4.81 101.36-5.3L101.36-5.3Q100.55-5.76 100.04-6.53 99.53-7.3 99.46-8.37L99.46-8.37 92.99-8.37Q92.99-6.76 93.78-5.16 94.57-3.56 96.11-2.32L96.11-2.32Q97.65-1.05 99.93-0.27 102.21 0.51 105.19 0.51L105.19 0.51Q107.9 0.51 110.1-0.09 112.3-0.68 113.86-1.76L113.86-1.76Q115.4-2.83 116.24-4.31 117.08-5.79 117.08-7.54L117.08-7.54Q117.08-9.45 116.24-10.83 115.4-12.21 113.91-13.18L113.91-13.18Q112.42-14.14 110.37-14.75 108.32-15.36 105.93-15.75L105.93-15.75Q104.26-15.99 103.19-16.32 102.12-16.65 101.51-17.07L101.51-17.07Q100.87-17.46 100.63-17.96 100.38-18.46 100.38-19.04L100.38-19.04Q100.38-19.63 100.66-20.15 100.94-20.68 101.48-21.07L101.48-21.07Q102.07-21.51 103-21.75 103.92-22 105.17-22L105.17-22Q106.63-22 107.67-21.63 108.71-21.26 109.32-20.65L109.32-20.65Q109.76-20.19 109.98-19.62 110.2-19.04 110.2-18.38L110.2-18.38 116.98-18.38Q116.98-20.21 116.18-21.78 115.37-23.34 113.86-24.49L113.86-24.49Q112.32-25.61 110.12-26.26 107.93-26.9 105.17-26.9L105.17-26.9Q102.53-26.9 100.43-26.25 98.33-25.59 96.87-24.46L96.87-24.46Q95.4-23.34 94.62-21.85 93.84-20.36 93.84-18.73L93.84-18.73Q93.84-17.04 94.61-15.75 95.38-14.45 96.75-13.48L96.75-13.48Q98.11-12.48 100.03-11.78 101.95-11.08 104.26-10.62L104.26-10.62Q106.1-10.28 107.29-9.94 108.49-9.59 109.22-9.2L109.22-9.2Q109.93-8.79 110.21-8.33 110.49-7.86 110.49-7.25ZM171.67-9.28L171.67-9.28Q171.67-8.33 171.28-7.53 170.89-6.74 170.15-6.18L170.15-6.18Q169.42-5.62 168.36-5.3 167.3-4.98 165.93-4.98L165.93-4.98Q164.39-4.98 163.11-5.32 161.83-5.66 160.93-6.4L160.93-6.4Q160-7.13 159.48-8.28 158.97-9.42 158.92-11.04L158.92-11.04 152.18-11.04Q152.18-8.28 153.25-6.23 154.31-4.17 156.14-2.66L156.14-2.66Q158.07-1.12 160.67-0.33 163.27 0.46 165.93 0.46L165.93 0.46Q168.64 0.46 170.93-0.18 173.23-0.83 174.89-2.1L174.89-2.1Q176.55-3.34 177.49-5.16 178.43-6.98 178.43-9.33L178.43-9.33Q178.43-12.04 177.18-14.11 175.94-16.19 173.84-17.75L173.84-17.75Q172.45-18.7 170.79-19.43 169.13-20.17 167.3-20.68L167.3-20.68Q165.59-21.14 164.23-21.68 162.88-22.22 161.93-22.88L161.93-22.88Q160.97-23.51 160.47-24.32 159.97-25.12 159.97-26.12L159.97-26.12Q159.97-27.08 160.35-27.89 160.73-28.71 161.46-29.32L161.46-29.32Q162.19-29.91 163.26-30.24 164.32-30.57 165.69-30.57L165.69-30.57Q167.18-30.57 168.29-30.16 169.4-29.76 170.15-29.05L170.15-29.05Q170.89-28.32 171.26-27.32 171.64-26.32 171.69-25.12L171.69-25.12 178.38-25.12Q178.38-27.51 177.45-29.52 176.53-31.52 174.87-32.98L174.87-32.98Q173.21-34.42 170.9-35.23 168.59-36.04 165.81-36.04L165.81-36.04Q163.12-36.04 160.83-35.34 158.53-34.64 156.85-33.35L156.85-33.35Q155.16-32.06 154.21-30.22 153.26-28.39 153.26-26.15L153.26-26.15Q153.26-24.19 153.98-22.53 154.7-20.87 156.12-19.51L156.12-19.51Q157.53-18.14 159.77-16.99 162-15.84 164.95-15.04L164.95-15.04Q166.86-14.53 168.14-13.93 169.42-13.33 170.23-12.62L170.23-12.62Q171.01-11.89 171.34-11.06 171.67-10.23 171.67-9.28ZM195.91-26.42L195.91-32.89 189.12-32.89 189.12-26.42 183.09-26.42 183.09-21.41 189.12-21.41 189.12-9.4Q189.12-6.79 189.8-4.92 190.49-3.05 191.76-1.86L191.76-1.86Q193-0.63 194.77-0.06 196.54 0.51 198.72 0.51L198.72 0.51Q199.84 0.51 201 0.4 202.16 0.29 203.23 0.1L203.23 0.1Q204.31-0.1 205.26-0.4 206.21-0.71 206.92-1.12L206.92-1.12 206.26-5.79Q205.8-5.66 205.15-5.54 204.5-5.42 203.77-5.32L203.77-5.32Q203.01-5.2 202.19-5.13 201.38-5.05 200.6-5.05L200.6-5.05Q199.52-5.05 198.65-5.3 197.79-5.54 197.18-6.13L197.18-6.13Q196.57-6.69 196.24-7.65 195.91-8.62 195.91-10.06L195.91-10.06 195.91-21.41 205.77-21.41 205.77-26.42 195.91-26.42ZM230.3-3.71L230.7 0 236.85 0 236.85-26.42 230.04-26.42 230.04-7.89Q229.72-7.25 229.28-6.74 228.84-6.23 228.28-5.86L228.28-5.86Q227.62-5.44 226.75-5.22 225.89-5 224.81-5L224.81-5Q223.62-5 222.79-5.3 221.96-5.59 221.44-6.27L221.44-6.27Q220.93-6.93 220.7-8.03 220.47-9.13 220.47-10.74L220.47-10.74 220.47-26.42 213.68-26.42 213.68-10.79Q213.68-7.79 214.35-5.65 215.02-3.52 216.24-2.15L216.24-2.15Q217.46-0.76 219.17-0.12 220.88 0.51 222.93 0.51L222.93 0.51Q225.18 0.51 227.07-0.61 228.96-1.73 230.3-3.71L230.3-3.71ZM242.75-13.4L242.75-13.4 242.75-12.89Q242.75-10.01 243.46-7.56 244.17-5.1 245.51-3.32L245.51-3.32Q246.83-1.54 248.75-0.52 250.66 0.49 253.08 0.49L253.08 0.49Q255.3 0.49 256.99-0.37 258.67-1.22 259.92-2.76L259.92-2.76 260.26 0 266.39 0 266.39-37.5 259.57-37.5 259.57-24.05Q258.35-25.42 256.78-26.16 255.2-26.9 253.13-26.9L253.13-26.9Q250.66-26.9 248.75-25.93 246.83-24.95 245.49-23.17L245.49-23.17Q244.15-21.39 243.45-18.9 242.75-16.41 242.75-13.4ZM249.54-12.89L249.54-12.89 249.54-13.4Q249.54-15.06 249.83-16.52 250.13-17.97 250.76-19.07L250.76-19.07Q251.4-20.14 252.41-20.76 253.42-21.39 254.86-21.39L254.86-21.39Q256.6-21.39 257.74-20.64 258.89-19.9 259.57-18.55L259.57-18.55 259.57-7.86Q258.89-6.54 257.73-5.79 256.57-5.03 254.81-5.03L254.81-5.03Q253.37-5.03 252.37-5.64 251.37-6.25 250.74-7.32L250.74-7.32Q250.1-8.37 249.82-9.8 249.54-11.23 249.54-12.89ZM289.65-26.42L275.27-26.42 275.27-20.87 282.79-20.87 282.79-5.52 275.27-5.52 275.27 0 296.8 0 296.8-5.52 289.65-5.52 289.65-26.42ZM282.3-33.18L282.3-33.18Q282.3-32.4 282.58-31.73 282.86-31.05 283.38-30.59L283.38-30.59Q283.89-30.1 284.61-29.83 285.33-29.57 286.21-29.57L286.21-29.57Q288.01-29.57 289.08-30.58 290.14-31.59 290.14-33.18L290.14-33.18Q290.14-34.77 289.08-35.78 288.01-36.79 286.21-36.79L286.21-36.79Q285.33-36.79 284.61-36.52 283.89-36.25 283.38-35.79L283.38-35.79Q282.86-35.3 282.58-34.63 282.3-33.96 282.3-33.18ZM302.54-13.45L302.54-13.45 302.54-12.94Q302.54-10.03 303.37-7.58 304.2-5.13 305.81-3.32L305.81-3.32Q307.4-1.51 309.73-0.5 312.06 0.51 315.04 0.51L315.04 0.51Q317.99 0.51 320.31-0.5 322.63-1.51 324.22-3.32L324.22-3.32Q325.81-5.13 326.64-7.58 327.47-10.03 327.47-12.94L327.47-12.94 327.47-13.45Q327.47-16.33 326.64-18.79 325.81-21.24 324.22-23.05L324.22-23.05Q322.61-24.85 320.29-25.88 317.97-26.9 314.99-26.9L314.99-26.9Q312.01-26.9 309.7-25.88 307.4-24.85 305.81-23.05L305.81-23.05Q304.2-21.24 303.37-18.79 302.54-16.33 302.54-13.45ZM309.33-12.94L309.33-12.94 309.33-13.45Q309.33-15.06 309.64-16.5 309.96-17.94 310.64-19.04L310.64-19.04Q311.33-20.14 312.4-20.78 313.48-21.41 314.99-21.41L314.99-21.41Q316.53-21.41 317.6-20.78 318.68-20.14 319.36-19.04L319.36-19.04Q320.02-17.94 320.34-16.5 320.65-15.06 320.65-13.45L320.65-13.45 320.65-12.94Q320.65-11.28 320.34-9.83 320.02-8.37 319.36-7.3L319.36-7.3Q318.68-6.2 317.6-5.57 316.53-4.93 315.04-4.93L315.04-4.93Q313.5-4.93 312.41-5.57 311.33-6.2 310.64-7.3L310.64-7.3Q309.96-8.37 309.64-9.83 309.33-11.28 309.33-12.94Z" opacity="1" transform="matrix(1,0,0,1,0,0)" fill="#f8fafc" class="undefined-text-0" data-fill-palette-color="primary" id="text-0"></path></svg></g></svg></g></svg></g></svg></g><g></g></svg></g></svg></g></svg></g></svg></g></svg><rect width="395.52" height="247.2" fill="none" stroke="none" visibility="hidden"></rect></g></svg></g></svg>