<svg t="1639644611200" class="icon" viewBox="0 0 2823 1024" version="1.1" xmlns="http://www.w3.org/2000/svg" p-id="8719" width="128" height="128"><path d="M0 0m147.914918 0l1386.702355 0q147.914918 0 147.914918 147.914918l0 314.3192q0 147.914918-147.914918 147.914918l-1386.702355 0q-147.914918 0-147.914918-147.914918l0-314.3192q0-147.914918 147.914918-147.914918Z" fill="#096DD9" p-id="8720"></path><path d="M318.423839 462.234118l11.389449-93.556185H293.611112v-23.999196h39.049538l8.542087-69.150224h-38.642773v-23.592429h41.490135l10.575917-84.200567h21.965365l-10.169151 84.200567h61.828436l10.982683-84.200567h21.965365l-10.982683 84.200567h36.608942v23.592429h-39.049538l-8.542086 69.150224h38.642772v23.999196h-41.490135L425.403304 462.234118h-22.372132l10.982683-93.556185h-61.828436L340.795971 462.234118h-22.372132z m36.608943-117.555381h61.828435l8.542087-69.150224h-61.828436l-8.542086 69.150224z m342.903758-109.42006v16.677407c12.202981 15.863875 45.557795 65.082564 52.879583 77.285544l-17.084173 20.338302c-6.10149-14.236811-22.778897-42.303667-35.79541-63.862266v206.63714h-26.439792v-199.315352c-13.830045 45.151029-32.134516 89.081759-51.252519 115.928317-2.847362-8.13532-9.762385-19.931535-14.643577-26.846557 24.812727-32.134516 49.625455-93.556186 62.235202-146.842535h-53.693115v-26.033026h57.354009V122.177722h26.439792v87.047929h45.151029v26.033026h-45.151029z m134.232788 222.907781h79.726141c21.151833 0 24.405961-9.355619 26.846557-59.794605 6.508256 4.474426 17.084173 8.948853 24.812728 10.982682-3.660894 57.760775-12.202981 73.62465-50.032221 73.624651H830.542264c-40.269836 0-52.472817-8.13532-52.472817-43.523965v-174.90939h146.435768s0 7.728554-0.406766 10.982682c-2.847362 70.777288-5.287958 97.623846-13.423278 106.979465-6.508256 7.321788-13.016513 9.355619-23.999196 10.575916-9.762385 0.406766-29.69392 0.406766-50.032221-0.813532a60.737563 60.737563 0 0 0-6.915022-23.592429c19.931535 2.03383 39.049538 2.03383 45.151028 2.03383 6.915022 0 10.575917-0.406766 13.423279-3.660894 4.881192-5.694724 7.728554-25.62626 9.355619-77.285545h-93.14942v149.689897c0 15.457109 4.474426 18.711237 27.66009 18.711237z m15.050343-338.429332l24.405961 7.728554c-2.03383 4.881192-4.06766 9.355619-6.508256 13.830045 26.439792 47.998391 74.031416 98.844144 116.741849 122.84334-6.915022 5.287958-15.457109 15.050343-19.931535 22.372131-38.642772-25.62626-80.946439-73.217884-109.420061-121.623041-28.473622 49.625455-67.52316 92.742654-108.606528 123.250105-2.847362-5.694724-10.982683-18.304471-15.863875-24.405961 48.405157-32.948048 93.14942-85.827631 119.182445-143.995173z m329.887245 199.722118l-16.270641 25.219493c-8.542087-15.050343-28.880388-45.151029-44.337496-67.929926V492.74157h-26.846558V288.13826c-16.270641 47.184859-37.82924 93.962952-60.201371 122.843339-3.254128-8.13532-10.169151-17.897705-15.050343-23.999195 28.066856-36.202176 57.760775-102.505038 71.59082-159.859048h-65.48933v-26.033025h69.150224V122.584488h26.846558v78.505843h58.574307v26.033025h-58.574307v14.236811c13.830045 16.270641 51.659285 65.896096 60.608137 78.099077z m163.113176 143.995172h12.202981c3.254128 0 6.10149-0.813532 8.13532-3.254128 2.440596-2.03383 3.254128-6.10149 4.474427-15.457109 0.406766-9.762385 1.220298-30.914218 1.220298-58.574307 5.694724 5.287958 13.830045 9.355619 21.151833 11.389448 0 23.185663-1.220298 53.693115-3.254128 63.4555-1.627064 11.796215-4.881192 17.490939-10.169151 21.965366-5.694724 4.06766-12.609747 5.287958-20.338301 5.287958h-19.524769c-7.321788 0-15.863875-2.03383-21.965366-7.321789-6.10149-4.881192-8.13532-12.202981-8.13532-47.184858V170.989645h-78.099077v104.538868c0 66.709628-8.542087 158.231983-66.709628 218.433355-4.06766-5.287958-14.643577-14.236811-21.151833-18.304471 55.320179-56.540477 60.608138-137.486916 60.608138-200.53565V145.363386h131.792191v291.651239c0 14.236811 0.813532 21.965365 2.847363 23.999195 2.03383 1.627064 4.474426 2.440596 6.915022 2.440596z" fill="#FFFFFF" p-id="8721"></path></svg>