<svg t="1639644536475" class="icon" viewBox="0 0 2823 1024" version="1.1" xmlns="http://www.w3.org/2000/svg" p-id="7494" width="128" height="128"><path d="M0 0m147.914918 0l1386.702355 0q147.914918 0 147.914918 147.914918l0 314.3192q0 147.914918-147.914918 147.914918l-1386.702355 0q-147.914918 0-147.914918-147.914918l0-314.3192q0-147.914918 147.914918-147.914918Z" fill="#096DD9" p-id="7495"></path><path d="M318.423839 462.234118l11.389449-93.556185H293.611112v-23.999196h39.049538l8.542087-69.150224h-38.642773v-23.592429h41.490135l10.575917-84.200567h21.965365l-10.169151 84.200567h61.828436l10.982683-84.200567h21.965365l-10.982683 84.200567h36.608942v23.592429h-39.049538l-8.542086 69.150224h38.642772v23.999196h-41.490135L425.403304 462.234118h-22.372132l10.982683-93.556185h-61.828436L340.795971 462.234118h-22.372132z m36.608943-117.555381h61.828435l8.542087-69.150224h-61.828436l-8.542086 69.150224z m602.013715-174.095858l-16.270641 15.863875c-9.762385-13.016513-30.100686-31.72775-48.405157-44.744263l15.863875-14.236811c17.490939 12.202981 38.642772 30.507452 48.811923 43.117199zM739.019908 383.728276l4.067661 24.405961c-45.557795 14.643577-93.14942 30.100686-129.351596 41.490135l-6.10149-26.033026c15.050343-4.474426 33.76158-9.355619 54.099881-15.863875v-114.708019h-46.371327v-25.219493h46.371327v-91.522356h-49.625455V150.651344h123.250105v25.626259h-47.998391v91.522356h41.896901v25.219493h-41.896901v106.572699l51.659285-15.863875z m210.704801-140.334279l23.185663 12.609747c-20.745067 29.69392-49.218689 65.896096-71.184054 89.081759 18.711237 40.676602 44.744263 71.184054 84.200567 98.844144-6.10149 4.881192-13.423279 13.016513-17.084173 20.338301-47.998391-35.79541-78.099077-75.251714-97.21708-130.165127v124.063637c0 17.490939-4.881192 25.219493-15.457109 29.69392-11.389449 4.881192-29.69392 5.694724-61.421669 5.694724a114.892912 114.892912 0 0 0-10.169151-26.033025c24.405961 0.813532 45.557795 0.406766 52.066051 0 6.10149 0 8.948853-2.03383 8.948853-8.948853V356.474952a5038.05606 5038.05606 0 0 1-98.437378 96.403548l-17.084173-23.185664c28.066856-23.592429 73.62465-64.269032 115.521551-103.725336v-106.979464h-100.064442v-24.812728h100.064442V122.584488h26.033025v71.59082h107.792997v24.812728h-107.792997v15.050343c5.287958 34.168346 11.796215 63.4555 21.151834 88.674993a687.45307 687.45307 0 0 0 56.947243-79.319375z m-197.688288 12.202981l21.151833-9.762385c18.304471 23.592429 37.82924 55.320179 45.557795 76.065247l-22.372131 10.575917c-7.321788-20.745067-26.439792-52.879583-44.337497-76.878779z m425.070495 63.862266l-16.270641 25.219493c-8.542087-15.050343-28.880388-45.151029-44.337496-67.929926V492.74157h-26.846558V288.13826c-16.270641 47.184859-37.82924 93.962952-60.201371 122.843339-3.254128-8.13532-10.169151-17.897705-15.050343-23.999195 28.066856-36.202176 57.760775-102.505038 71.59082-159.859048h-65.48933v-26.033025h69.150224V122.584488h26.846558v78.505843h58.574307v26.033025h-58.574307v14.236811c13.830045 16.270641 51.659285 65.896096 60.608137 78.099077z m163.113176 143.995172h12.202981c3.254128 0 6.10149-0.813532 8.13532-3.254128 2.440596-2.03383 3.254128-6.10149 4.474427-15.457109 0.406766-9.762385 1.220298-30.914218 1.220298-58.574307 5.694724 5.287958 13.830045 9.355619 21.151833 11.389448 0 23.185663-1.220298 53.693115-3.254128 63.4555-1.627064 11.796215-4.881192 17.490939-10.169151 21.965366-5.694724 4.06766-12.609747 5.287958-20.338301 5.287958h-19.524769c-7.321788 0-15.863875-2.03383-21.965366-7.321789-6.10149-4.881192-8.13532-12.202981-8.13532-47.184858V170.989645h-78.099077v104.538868c0 66.709628-8.542087 158.231983-66.709628 218.433355-4.06766-5.287958-14.643577-14.236811-21.151833-18.304471 55.320179-56.540477 60.608138-137.486916 60.608138-200.53565V145.363386h131.792191v291.651239c0 14.236811 0.813532 21.965365 2.847363 23.999195 2.03383 1.627064 4.474426 2.440596 6.915022 2.440596z" fill="#FFFFFF" p-id="7496"></path></svg>