{
  "accessors": [
    {
      "name": "M_1_0_positions",
      "componentType": 5126,
      "count": 16,
      "min": [
        -0.5,
        0.0020000000949949026,
        -0.5
      ],
      "max": [
        0.5,
        1.0019999742507935,
        0.5
      ],
      "type": "VEC3",
      "bufferView": 0,
      "byteOffset": 0
    },
    {
      "name": "M_1_0_normals",
      "componentType": 5126,
      "count": 16,
      "min": [
        -0.8944271802902222,
        -0.4472135901451111,
        -0.8944271802902222
      ],
      "max": [
        0.8944271802902222,
        1,
        0.8944271802902222
      ],
      "type": "VEC3",
      "bufferView": 1,
      "byteOffset": 0
    },
    {
      "name": "M_1_0_texcoords",
      "componentType": 5126,
      "count": 16,
      "min": [
        0,
        0
      ],
      "max": [
        1,
        1
      ],
      "type": "VEC2",
      "bufferView": 2,
      "byteOffset": 0
    },
    {
      "name": "M_1_0_indices",
      "componentType": 5123,
      "count": 18,
      "min": [
        0
      ],
      "max": [
        15
      ],
      "type": "SCALAR",
      "bufferView": 3,
      "byteOffset": 0
    }
  ],
  "asset": {
    "generator": "obj2gltf",
    "version": "2.0"
  },
  "buffers": [
    {
      "name": "M",
      "byteLength": 548,
      "uri": "data:application/octet-stream;base64,"
    }
  ],
  "bufferViews": [
    {
      "name": "bufferView_0",
      "buffer": 0,
      "byteLength": 192,
      "byteOffset": 0,
      "byteStride": 12,
      "target": 34962
    },
    {
      "name": "bufferView_1",
      "buffer": 0,
      "byteLength": 192,
      "byteOffset": 192,
      "byteStride": 12,
      "target": 34962
    },
    {
      "name": "bufferView_2",
      "buffer": 0,
      "byteLength": 128,
      "byteOffset": 384,
      "byteStride": 8,
      "target": 34962
    },
    {
      "name": "bufferView_3",
      "buffer": 0,
      "byteLength": 36,
      "byteOffset": 512,
      "target": 34963
    }
  ],
  "materials": [
    {
      "name": "07___Default",
      "pbrMetallicRoughness": {
        "baseColorFactor": [
          0.6196,
          0.6196,
          0.6196,
          0.37
        ],
        "metallicFactor": 0,
        "roughnessFactor": 0.99
      },
      "emissiveFactor": [
        0,
        0,
        0
      ],
      "alphaMode": "BLEND",
      "doubleSided": true
    }
  ],
  "meshes": [
    {
      "name": "M_1",
      "primitives": [
        {
          "attributes": {
            "POSITION": 0,
            "NORMAL": 1,
            "TEXCOORD_0": 2
          },
          "indices": 3,
          "material": 0,
          "mode": 4
        }
      ]
    }
  ],
  "nodes": [
    {
      "name": "M",
      "mesh": 0
    }
  ],
  "scene": 0,
  "scenes": [
    {
      "nodes": [
        0
      ]
    }
  ]
}
